<?xml version="1.0" standalone="no"?>
<!DOCTYPE svg PUBLIC "-//W3C//DTD SVG 20010904//EN"
 "http://www.w3.org/TR/2001/REC-SVG-20010904/DTD/svg10.dtd">
<svg version="1.0" xmlns="http://www.w3.org/2000/svg"
 width="460.000000pt" height="460.000000pt" viewBox="0 0 460.000000 460.000000"
 preserveAspectRatio="xMidYMid meet">
<metadata>
Created by potrace 1.14, written by Peter Selinger 2001-2017
</metadata>
<g transform="translate(0.000000,460.000000) scale(0.100000,-0.100000)"
fill="#000000" stroke="none">
<path d="M2677 4594 c-3 -4 5 -17 19 -31 13 -13 24 -28 24 -33 0 -6 7 -10 16
-10 8 0 12 -4 9 -10 -3 -5 -1 -10 4 -10 12 0 14 11 5 34 -3 9 -10 13 -15 10
-17 -10 -23 29 -6 41 14 10 11 12 -17 13 -18 1 -36 -1 -39 -4z"/>
<path d="M2786 4585 c4 -8 7 -15 9 -15 1 0 8 7 15 15 10 13 9 15 -8 15 -15 0
-20 -5 -16 -15z"/>
<path d="M3308 4588 c5 -5 16 -8 23 -6 8 3 3 7 -10 11 -17 4 -21 3 -13 -5z"/>
<path d="M3456 4587 c3 -10 9 -15 12 -12 3 3 0 11 -7 18 -10 9 -11 8 -5 -6z"/>
<path d="M3530 4595 c0 -3 7 -21 14 -40 14 -33 14 -35 -5 -35 -11 0 -30 5 -41
11 -16 8 -23 8 -29 -2 -8 -11 -12 -10 -24 5 -8 10 -16 24 -19 30 -3 6 -13 2
-25 -12 -15 -18 -26 -22 -43 -16 -32 10 -68 11 -68 2 0 -4 12 -8 27 -8 15 0
42 -5 60 -12 29 -10 36 -10 43 2 7 11 10 11 10 2 0 -7 12 -12 28 -11 15 0 46
-3 70 -7 34 -5 42 -11 42 -28 0 -12 -6 -28 -12 -35 -7 -7 -8 -12 -3 -11 22 5
35 -1 35 -14 0 -22 -31 -48 -51 -43 -12 3 -16 0 -12 -9 3 -8 0 -14 -6 -14 -6
0 -8 -7 -5 -15 6 -14 8 -14 18 -1 16 22 68 10 61 -14 -3 -10 -1 -21 5 -25 15
-9 12 -55 -4 -55 -17 0 -33 33 -38 83 -3 21 -18 23 -18 2 0 -8 -4 -15 -10 -15
-5 0 -10 -5 -10 -11 0 -5 5 -7 10 -4 6 3 10 -1 10 -9 0 -9 -6 -16 -14 -16 -19
0 -40 -26 -26 -35 16 -10 12 -33 -12 -55 -23 -22 -18 -26 12 -10 15 8 21 6 30
-11 7 -11 10 -22 8 -24 -6 -6 -88 7 -88 14 0 5 -34 6 -104 2 -11 -1 -16 -4
-12 -8 3 -4 23 -6 44 -5 48 3 146 -15 150 -28 2 -6 11 -6 23 1 15 7 24 7 35
-2 18 -15 18 -48 -1 -54 -54 -17 -52 -15 -32 -26 9 -6 17 -15 17 -22 0 -8 -3
-7 -9 2 -7 11 -10 9 -16 -9 -5 -16 -3 -26 9 -32 11 -6 14 -17 10 -34 -4 -14
-2 -24 5 -24 12 0 15 -42 4 -53 -3 -4 -12 -2 -20 5 -7 6 -16 8 -20 5 -3 -4 5
-15 17 -25 14 -11 20 -24 16 -31 -6 -8 -12 -9 -20 -2 -9 8 -18 6 -32 -5 -19
-15 -19 -15 1 -11 30 6 44 -15 37 -52 -7 -32 -7 -32 -28 -13 -11 11 -30 24
-41 31 -14 7 -19 17 -16 29 4 16 0 18 -26 14 -19 -2 -31 0 -31 7 0 6 7 11 15
11 8 0 15 5 15 10 0 7 -7 7 -21 -1 -17 -9 -23 -8 -30 2 -5 8 -7 20 -4 27 2 6
0 12 -5 12 -6 0 -10 -5 -10 -12 0 -6 -11 -1 -25 12 -13 12 -22 27 -19 31 3 5
1 9 -5 9 -6 0 -8 7 -4 16 5 14 8 13 18 -6 7 -13 15 -18 19 -12 3 6 0 12 -6 15
-9 3 -7 9 7 20 14 11 24 12 32 5 10 -8 13 -5 13 10 0 15 -5 20 -15 16 -11 -5
-13 -2 -9 10 5 13 9 14 21 4 11 -9 16 -9 24 3 5 8 7 19 5 26 -3 6 2 19 9 30
24 31 16 37 -11 10 -15 -15 -30 -24 -35 -21 -5 3 -9 -2 -9 -10 0 -9 -11 -18
-25 -22 -17 -4 -25 -13 -25 -28 0 -15 3 -17 9 -7 5 8 11 9 15 3 10 -17 -12
-24 -31 -10 -10 7 -18 24 -18 38 0 16 -8 29 -24 36 -22 11 -22 12 -5 23 16 8
16 10 3 11 -28 0 -3 80 25 80 12 0 12 7 3 38 -6 20 -17 45 -25 54 -21 25 -12
64 15 61 27 -3 21 23 -8 32 -27 9 -24 35 4 35 41 0 56 3 51 12 -3 5 -19 6 -35
3 -36 -8 -37 3 -4 51 18 26 22 40 14 45 -7 4 -8 8 -1 10 6 2 4 9 -4 17 -12 11
-14 9 -14 -12 0 -29 -19 -76 -31 -76 -5 0 -6 -7 -3 -15 4 -8 2 -15 -3 -15 -4
0 -7 -19 -5 -42 3 -51 -5 -66 -38 -70 -14 -2 -31 -7 -38 -11 -12 -8 -21 7 -35
58 -3 11 -4 1 -1 -23 4 -27 1 -48 -6 -58 -11 -12 -10 -13 4 -8 12 5 15 1 13
-15 -5 -31 -10 -32 -42 -5 -21 18 -31 21 -36 12 -8 -12 -16 -10 -96 19 -7 3
-13 0 -13 -6 0 -6 9 -11 19 -11 11 0 22 -4 26 -9 3 -5 19 -12 35 -16 46 -10
39 -36 -7 -29 -21 3 -42 8 -48 12 -5 3 1 -6 15 -20 14 -13 28 -23 32 -21 4 2
5 -3 2 -11 -5 -12 0 -16 20 -16 22 0 26 -5 27 -27 0 -16 3 -22 6 -15 5 14 23
16 23 3 0 -15 -33 -22 -42 -9 -5 9 -8 5 -8 -11 0 -16 -4 -21 -14 -18 -8 3 -22
-1 -33 -8 -17 -14 -17 -14 5 -15 13 0 20 -4 17 -10 -4 -6 -10 -8 -15 -5 -12 7
-22 -28 -14 -49 3 -9 1 -23 -6 -31 -9 -10 -9 -15 -1 -15 6 0 11 -4 11 -10 0
-5 -10 -10 -22 -10 -19 -1 -20 -2 -7 -10 37 -21 76 17 40 40 -9 5 -10 10 -3
14 6 4 8 14 5 23 -4 11 -2 14 8 11 8 -3 13 -11 11 -17 -1 -7 2 -10 8 -6 5 3
10 -1 10 -9 0 -30 -20 -67 -42 -75 -20 -8 -21 -10 -6 -16 24 -9 13 -25 -12
-18 -11 3 -20 0 -20 -6 0 -6 3 -10 8 -10 21 4 40 -2 45 -14 3 -9 -5 -14 -25
-15 -38 -3 -70 7 -63 19 4 5 -1 12 -10 15 -8 4 -14 11 -13 18 2 6 -12 26 -31
43 l-34 33 24 9 c26 9 49 4 49 -10 0 -5 5 -9 11 -9 11 0 4 69 -10 83 -10 10
-62 -38 -53 -49 4 -4 -1 -4 -10 -1 -13 5 -18 1 -18 -13 0 -12 -7 -20 -16 -20
-23 0 3 -22 41 -35 37 -13 49 -55 15 -55 -17 0 -20 4 -15 23 7 21 6 21 -8 3
-17 -24 -47 -15 -47 14 0 11 -4 20 -10 20 -5 0 -9 3 -9 8 1 4 0 12 -1 17 -1 6
-3 15 -4 20 0 6 -5 10 -11 11 -5 0 -9 -8 -7 -18 3 -15 -1 -19 -15 -16 -14 3
-17 11 -15 37 3 23 0 31 -8 26 -6 -4 -20 1 -30 10 -19 17 -20 17 -26 0 -6 -15
-11 -13 -36 16 -24 28 -26 29 -12 6 9 -15 14 -30 12 -33 -8 -8 -108 58 -102
67 3 5 -3 9 -14 9 -25 0 -54 33 -46 53 3 10 11 14 18 10 6 -4 5 1 -3 10 -7 9
-11 23 -7 32 3 9 -3 19 -14 25 -16 8 -18 8 -14 -5 4 -10 0 -15 -11 -15 -9 0
-14 4 -10 9 3 5 1 12 -5 16 -5 3 -10 1 -10 -4 0 -6 -6 -11 -12 -11 -7 0 -21
-7 -31 -14 -16 -12 -15 -13 8 -13 13 0 22 3 19 8 -3 5 2 9 10 9 20 0 20 -5 0
-35 -15 -23 -15 -25 0 -25 9 0 19 -7 22 -15 4 -8 13 -15 21 -15 10 0 13 -6 9
-16 -5 -14 -4 -15 8 -5 8 7 16 8 18 3 3 -7 89 -69 136 -97 9 -5 19 -11 22 -13
2 -2 -2 -7 -10 -12 -12 -8 -10 -10 8 -10 23 0 51 -13 83 -39 12 -10 17 -24 14
-40 -3 -15 -2 -20 1 -13 8 16 49 15 63 -2 7 -8 15 -31 18 -51 l6 -37 -46 3
c-26 2 -49 0 -53 -4 -4 -4 4 -7 18 -7 30 0 56 -26 41 -41 -6 -6 -21 -7 -35 -4
-19 5 -28 17 -37 47 -13 40 -13 41 -25 17 -9 -19 -9 -25 1 -27 7 -2 13 -13 13
-25 0 -18 -2 -19 -10 -7 -7 11 -10 12 -10 2 0 -8 9 -16 20 -19 11 -3 20 -12
20 -19 0 -8 -2 -14 -3 -14 -13 0 -67 33 -67 40 0 5 -7 7 -15 4 -8 -4 -15 -10
-15 -15 0 -4 7 -6 15 -3 8 4 17 -1 21 -10 3 -9 15 -16 25 -16 20 0 16 -24 -9
-49 -12 -12 -18 -12 -34 -2 -13 8 -23 9 -27 3 -3 -6 -20 -12 -36 -15 -22 -4
-18 -5 12 -4 23 1 45 -2 48 -5 4 -3 48 -3 98 0 51 4 108 6 129 6 29 0 33 2 21
11 -13 10 -13 13 -1 23 8 6 24 13 36 15 12 2 25 6 28 10 13 13 36 7 31 -7 -4
-10 1 -12 16 -9 22 4 22 4 2 -12 -19 -16 -19 -16 8 -10 19 5 27 3 28 -6 0 -14
21 28 23 46 2 19 35 16 46 -5 10 -18 8 -21 -20 -26 -16 -4 -30 -10 -30 -15 0
-12 1 -12 45 6 28 12 40 13 51 4 7 -6 12 -14 10 -18 -7 -11 60 -66 161 -132
35 -22 36 -47 2 -29 -11 6 -19 7 -19 2 0 -6 9 -12 21 -15 13 -4 18 -10 14 -17
-5 -9 -1 -10 14 -5 25 8 64 -3 56 -15 -3 -5 -19 -7 -35 -4 -59 12 -288 -80
-359 -145 -105 -96 -142 -139 -152 -176 -6 -22 -16 -62 -24 -90 -7 -27 -16
-72 -20 -100 -4 -27 -11 -58 -17 -68 -5 -10 -14 -46 -19 -80 -14 -87 -18 -99
-36 -93 -8 3 -23 1 -34 -4 -15 -8 -21 -7 -25 5 -9 23 -26 18 -19 -5 5 -14 2
-20 -9 -20 -9 0 -16 -5 -16 -11 0 -6 -7 -9 -15 -6 -15 6 -105 -33 -105 -45 0
-5 12 -8 26 -8 19 0 25 -4 20 -15 -6 -15 5 -20 18 -8 4 4 19 9 33 11 15 2 34
7 43 12 9 5 27 6 39 3 15 -4 20 -2 16 8 -3 8 7 21 25 31 l30 17 0 -31 c0 -25
-3 -29 -20 -25 -11 3 -18 1 -14 -4 3 -5 13 -9 22 -10 9 0 2 -5 -15 -10 -18 -5
-33 -14 -33 -19 0 -6 8 -5 20 2 10 7 23 9 27 5 4 -5 1 -12 -7 -17 -8 -5 -15
-15 -15 -22 0 -19 -115 -34 -126 -16 -6 8 -9 9 -9 2 0 -7 -16 -14 -35 -16 -19
-2 -35 -1 -35 2 0 4 -20 8 -45 8 -25 1 -49 3 -53 4 -7 1 -20 -3 -67 -21 -11
-5 -54 -9 -95 -10 -41 -1 -82 -4 -92 -7 -30 -9 -29 14 2 32 16 10 30 21 30 24
0 3 19 4 41 4 23 -1 53 3 68 7 14 5 44 12 66 17 l40 9 -65 9 c-49 8 -75 7
-104 -3 -21 -7 -42 -11 -47 -8 -4 3 -25 -1 -45 -10 -20 -8 -39 -13 -41 -11 -3
3 -26 -2 -51 -10 -41 -12 -127 -16 -267 -12 -24 1 -39 -3 -38 -9 1 -6 -18 -13
-43 -15 -42 -3 -49 0 -70 27 l-23 30 -128 0 c-91 1 -132 -3 -141 -12 -8 -8
-24 -10 -40 -6 -37 9 -73 29 -65 36 3 4 -21 7 -55 7 -44 0 -71 -6 -94 -20 -26
-16 -29 -20 -13 -20 15 0 17 -2 6 -9 -10 -6 -11 -13 -3 -27 8 -14 20 -18 51
-15 23 1 41 -1 41 -6 0 -14 -79 -46 -96 -39 -9 3 -21 3 -27 -1 -19 -11 -47
-11 -48 1 0 6 -4 2 -9 -9 -7 -16 -9 -16 -9 -4 -1 9 -10 27 -20 40 -20 24 -20
24 -35 4 -8 -11 -18 -16 -23 -12 -4 5 -1 12 7 17 12 6 15 28 14 97 l-2 88 -28
0 c-28 0 -29 -2 -30 -45 -1 -67 -2 -70 -29 -70 -14 0 -25 -6 -25 -12 0 -9 -4
-8 -10 2 -17 27 -11 68 15 94 29 29 33 74 8 83 -28 10 -65 54 -59 69 3 8 -1
14 -9 14 -8 0 -15 -6 -15 -12 0 -9 -3 -8 -10 2 -12 20 -21 8 -22 -29 -1 -29
-2 -30 -18 -16 -10 9 -25 13 -36 9 -11 -3 -15 -2 -9 3 15 12 50 77 37 70 -5
-4 -12 -1 -15 7 -3 8 1 17 9 20 23 9 26 7 18 -6 -4 -7 1 -6 10 3 15 14 16 20
4 40 -7 13 -21 30 -30 37 -10 7 -18 22 -18 33 0 11 -4 18 -9 15 -4 -3 -15 0
-24 7 -18 14 -33 77 -19 77 6 0 8 8 5 18 -2 11 2 35 10 55 17 39 14 47 -16 47
-13 0 -17 -5 -13 -15 3 -8 0 -15 -7 -16 -7 0 -3 -4 8 -9 19 -8 19 -9 1 -9 -16
-1 -17 -4 -8 -13 17 -17 15 -34 -5 -34 -10 -1 -25 -3 -33 -5 -11 -3 -16 6 -18
39 -3 36 0 42 16 42 11 0 22 7 26 15 3 8 2 15 -3 15 -5 0 -16 20 -25 44 -16
42 -16 47 -1 70 21 31 47 24 39 -10 -5 -19 -3 -23 9 -18 13 5 26 33 27 57 0 4
-10 7 -23 7 -13 0 -28 5 -35 12 -9 9 -12 9 -12 0 0 -7 -4 -12 -9 -12 -5 0 -8
18 -8 40 1 22 5 40 8 40 3 0 6 14 6 30 0 25 -4 30 -24 30 -21 0 -22 -3 -13
-20 8 -15 8 -20 -2 -20 -9 0 -9 -3 0 -12 18 -18 15 -25 -13 -32 -18 -5 -25
-13 -25 -31 0 -14 5 -25 11 -25 6 0 9 -6 7 -12 -3 -7 5 -20 16 -30 14 -11 16
-17 7 -18 -10 0 -12 -13 -9 -55 4 -47 2 -56 -14 -61 -12 -3 -17 -12 -14 -20 3
-8 -1 -14 -10 -14 -8 0 -12 -4 -9 -10 4 -6 -5 -10 -19 -10 -14 0 -26 -5 -26
-11 0 -6 7 -9 15 -5 12 4 14 -4 13 -38 -3 -55 21 -85 46 -60 15 14 16 14 16
-3 0 -15 2 -16 10 -3 8 12 10 11 10 -8 0 -12 -3 -21 -8 -21 -24 4 -40 -3 -44
-19 -6 -22 16 -57 30 -48 5 3 12 -3 15 -13 3 -14 -1 -18 -19 -18 -16 0 -24 5
-24 16 0 9 -4 21 -10 27 -5 5 -11 21 -12 35 -1 16 -8 26 -20 26 -15 2 -18 -6
-18 -49 0 -43 -2 -49 -18 -44 -16 6 -16 5 1 -8 20 -15 24 -51 5 -40 -7 4 -2
-5 11 -19 19 -21 27 -24 43 -16 10 6 23 22 29 35 13 35 34 25 36 -17 1 -19 -1
-26 -3 -16 -3 9 -10 17 -15 17 -6 0 -8 -4 -5 -9 3 -4 -6 -13 -20 -20 -20 -9
-25 -17 -21 -32 3 -12 3 -18 0 -15 -4 3 -11 2 -17 -3 -6 -5 -21 -5 -34 0 -18
7 -22 14 -17 30 5 15 4 19 -4 15 -7 -4 -11 1 -11 13 0 11 -4 23 -10 26 -15 10
-12 25 6 25 9 0 14 6 12 13 -3 6 -11 12 -19 12 -8 0 -17 4 -20 8 -4 5 -11 -5
-17 -21 -6 -17 -8 -33 -5 -36 3 -3 -2 -12 -10 -21 -14 -14 -17 -14 -26 2 -9
16 -10 16 -11 -4 0 -13 3 -22 8 -22 4 1 13 1 21 0 23 -2 -6 -28 -40 -35 -17
-3 -28 -9 -25 -14 2 -4 -11 -6 -29 -4 -28 3 -39 -1 -59 -24 -25 -31 -91 -63
-83 -41 3 7 9 11 14 10 5 -1 10 13 10 30 0 63 37 218 50 213 7 -3 13 -1 13 3
0 5 -4 11 -9 13 -6 2 -10 28 -10 58 -1 61 -1 65 -4 162 -2 59 -5 68 -29 88
-28 21 -40 48 -16 34 18 -11 48 -12 54 -2 3 4 1 8 -4 8 -6 0 -15 14 -21 31
-11 31 -39 36 -33 5 3 -19 -9 -21 -27 -3 -24 23 11 -46 41 -81 30 -35 39 -63
13 -42 -18 15 -19 7 -4 -22 13 -25 14 -207 1 -299 -10 -69 -41 -169 -53 -169
-4 0 -10 10 -14 23 -4 13 -8 17 -12 10 -2 -7 -10 -13 -17 -13 -7 0 -20 -8 -29
-18 -15 -17 -15 -18 8 -18 16 0 25 6 25 15 0 11 4 10 14 -5 25 -33 5 -79 -50
-110 -15 -9 -19 -23 -20 -62 -1 -29 3 -49 7 -46 5 3 9 -2 9 -10 0 -9 8 -16 18
-17 11 0 12 -2 4 -6 -7 -3 -19 1 -27 7 -13 11 -15 -131 -15 -1164 l0 -1176
2300 0 2300 0 0 1469 c0 1166 -3 1471 -12 1475 -10 5 -10 7 0 12 15 7 16 54 1
54 -6 0 -8 -9 -4 -21 5 -13 3 -19 -3 -15 -14 8 -33 -19 -26 -37 3 -9 3 -21 0
-26 -10 -15 -36 -2 -29 15 3 9 -2 14 -15 14 -25 0 -31 17 -33 88 -2 33 2 57
10 61 7 5 10 18 6 33 -4 14 -2 28 3 32 5 3 7 16 5 29 -8 40 22 95 61 114 34
16 36 20 36 65 0 36 -4 48 -15 48 -8 0 -14 -3 -14 -7 3 -20 -2 -34 -11 -28 -5
3 -10 -1 -10 -10 0 -9 -4 -13 -10 -10 -14 9 -12 35 3 35 8 0 12 20 12 64 0 71
10 91 30 63 11 -16 13 -9 13 52 -1 39 -5 71 -9 71 -5 0 -9 9 -9 20 0 11 5 20
10 20 6 0 10 30 10 70 0 58 -3 70 -16 70 -10 0 -14 -5 -10 -16 3 -8 2 -13 -3
-9 -5 3 -11 0 -13 -6 -6 -17 -44 5 -64 37 -16 24 -16 26 5 45 12 11 26 17 32
13 8 -4 7 -9 -2 -16 -11 -8 -11 -9 1 -5 9 2 14 13 12 27 -3 19 0 22 15 16 14
-6 15 -5 6 5 -9 9 -18 8 -37 -5 -15 -9 -26 -14 -26 -11 0 3 -8 1 -18 -4 -14
-7 -19 -6 -19 4 0 7 11 19 24 26 13 7 23 16 23 21 0 5 -4 6 -10 3 -6 -3 -7 1
-4 9 3 9 1 16 -5 16 -10 0 -15 -13 -13 -31 3 -16 -39 6 -69 37 -18 19 -39 34
-46 34 -7 0 -19 11 -25 25 -6 14 -18 25 -25 25 -8 0 -11 5 -8 10 4 6 10 8 15
5 5 -3 11 -1 15 5 4 6 -5 10 -19 10 -19 0 -26 5 -26 19 0 38 11 51 39 45 23
-5 24 -4 9 9 -16 13 -16 15 -1 38 16 23 16 23 0 10 -21 -17 -21 -8 0 41 9 21
24 38 32 38 12 0 13 2 3 9 -10 6 -9 13 6 31 11 13 24 20 30 16 16 -10 15 -22
-4 -40 -14 -15 -12 -16 18 -15 18 0 27 3 21 6 -7 2 -13 12 -13 20 0 13 8 14
48 8 26 -4 56 -12 67 -18 19 -10 19 -11 -5 -18 l-25 -7 27 -1 c15 -1 30 -5 33
-11 10 -16 25 -11 25 8 0 10 -12 29 -27 42 l-28 25 30 6 30 7 -27 1 c-21 1
-28 6 -28 21 0 14 -7 20 -24 20 -13 0 -34 8 -46 18 l-23 19 19 34 c10 19 20
36 22 38 1 3 13 -6 27 -19 14 -13 25 -20 25 -15 0 4 -12 19 -26 32 -23 21 -25
26 -12 41 28 33 30 52 3 52 -21 0 -28 -8 -41 -50 0 -3 -7 -21 -15 -40 -7 -19
-13 -38 -12 -41 1 -3 -5 -6 -13 -6 -8 0 -14 6 -14 14 0 7 -4 13 -10 13 -5 0
-10 5 -10 10 0 6 12 10 26 10 14 0 24 5 22 11 -2 6 -7 10 -11 10 -4 -1 -16 -1
-27 -1 -13 0 -20 -7 -20 -20 0 -12 -7 -20 -17 -20 -13 0 -14 3 -6 11 6 6 9 18
6 27 -4 9 -2 13 4 9 6 -4 14 0 17 8 4 11 13 14 31 9 15 -4 25 -2 25 5 0 6 -11
11 -25 11 -14 0 -25 4 -25 10 0 5 -6 7 -14 4 -8 -3 -13 -11 -10 -17 2 -7 -6
-18 -18 -26 -20 -12 -21 -12 -11 0 12 15 12 43 1 55 -4 3 -20 -8 -36 -25 -16
-17 -32 -31 -36 -31 -11 0 -7 35 6 48 9 9 -3 11 -50 10 -56 -2 -60 -3 -51 -21
6 -10 8 -21 6 -24 -3 -3 -12 8 -21 24 l-15 28 -1 -27 c0 -16 -4 -28 -9 -28
-14 0 -20 27 -9 38 8 8 5 11 -11 9 -11 -1 -21 -6 -21 -12 0 -5 -5 -3 -10 5 -7
12 -12 12 -22 2 -6 -6 -17 -12 -22 -12 -6 0 -5 4 2 9 8 4 -21 8 -68 9 -52 1
-78 -3 -74 -9 3 -6 12 -8 19 -5 15 5 49 -27 38 -37 -3 -4 0 -7 7 -7 13 0 39
-28 40 -42 0 -18 -18 -6 -23 14 -5 18 -8 19 -21 8 -15 -11 -20 -7 -17 13 0 4
-2 6 -6 5 -11 -4 -62 49 -55 56 3 3 -9 6 -27 6 -18 0 -30 -4 -26 -10 8 -13
-23 -70 -56 -102 -16 -16 -26 -28 -22 -28 4 0 2 -5 -4 -11 -9 -9 -19 -6 -39
10 -23 18 -24 25 -3 23 4 -1 10 10 13 23 4 14 11 25 16 25 6 0 10 5 10 10 0 6
-11 3 -25 -6 -32 -21 -55 -13 -48 18 3 13 10 28 14 33 5 7 1 11 -11 12 -12 1
-17 -3 -14 -12 3 -7 1 -16 -4 -19 -5 -3 -12 3 -15 14 -3 11 -13 20 -22 20 -9
0 -13 -5 -10 -11 7 -11 -22 -49 -37 -49 -4 0 -8 8 -8 18 0 10 -5 23 -12 30
-12 12 -28 16 -28 7z m379 -60 c3 0 5 -3 4 -7 -2 -5 3 -8 10 -9 6 0 3 -5 -8
-10 -17 -8 -16 -9 6 -4 28 5 46 -16 32 -37 -4 -7 -1 -8 7 -3 10 6 12 3 7 -11
-7 -19 -7 -19 7 0 10 12 21 16 33 11 17 -7 17 -8 -2 -15 -11 -5 -16 -9 -11 -9
5 -1 3 -7 -3 -15 -8 -10 -9 -16 -1 -21 5 -3 10 -11 10 -16 0 -6 -14 0 -32 12
-34 25 -28 5 8 -23 15 -12 21 -27 20 -48 -3 -38 -10 -45 -30 -25 -12 12 -16
13 -18 3 0 -7 -2 -17 -2 -23 -1 -5 -4 -10 -7 -10 -8 0 -39 -32 -39 -40 0 -3 9
-3 20 0 22 7 29 -18 9 -30 -19 -12 -49 25 -43 54 4 20 3 22 -5 11 -14 -20 -25
-5 -25 35 0 21 -3 30 -8 22 -8 -11 -17 -3 -68 60 -13 16 -13 26 0 18 6 -3 10
1 10 9 0 9 5 16 12 16 6 0 9 3 6 6 -4 3 -16 1 -27 -6 -28 -14 -28 5 -1 22 11
7 20 18 20 25 0 19 32 53 43 46 6 -3 7 -1 3 6 -4 6 -2 19 5 27 10 13 14 12 31
-3 11 -10 23 -18 27 -18z m-270 -13 c-5 -2 -16 -1 -25 2 -12 5 -13 8 -2 20 11
11 15 11 25 -3 7 -9 8 -17 2 -19z m432 -5 c-13 -13 -26 -3 -16 12 3 6 11 8 17
5 6 -4 6 -10 -1 -17z m-94 -19 c-3 -8 -6 -5 -6 6 -1 11 2 17 5 13 3 -3 4 -12
1 -19z m-326 -30 c22 -24 39 -46 39 -50 0 -14 -40 -9 -41 5 0 6 -4 2 -10 -11
-11 -29 -29 -20 -29 14 0 14 4 22 10 19 5 -3 7 0 4 9 -3 8 -12 17 -20 20 -17
6 -19 36 -3 36 6 0 29 -19 50 -42z m569 -28 c0 -5 -4 -10 -10 -10 -5 0 -10 5
-10 10 0 6 5 10 10 10 6 0 10 -4 10 -10z m93 -12 c6 -22 2 -36 -8 -26 -3 3 -7
15 -10 27 -5 28 11 27 18 -1z m-593 -62 c0 -6 -5 -4 -10 4 -5 8 -10 11 -10 5
0 -5 -5 -3 -11 5 -9 13 -10 12 -5 -3 4 -12 -3 -27 -21 -43 -27 -25 -38 -31
-28 -14 3 6 1 10 -4 10 -6 0 -11 12 -11 26 0 22 4 26 24 22 17 -3 23 -1 19 8
-7 18 30 23 45 5 6 -8 12 -20 12 -25z m752 16 c-2 -12 2 -22 7 -22 6 0 11 4
11 9 0 5 9 11 20 14 11 3 20 1 20 -4 0 -5 -6 -9 -12 -10 -10 0 -10 -2 0 -6 21
-8 13 -20 -11 -18 -23 3 -87 32 -87 39 0 2 8 3 18 2 9 0 16 5 14 12 -1 8 3 12
10 10 7 -3 12 -15 10 -26z m-252 6 c0 6 11 12 25 12 16 0 25 -6 25 -16 0 -8
-5 -12 -11 -9 -14 9 -38 -25 -31 -44 3 -9 1 -12 -7 -7 -6 4 -9 16 -6 26 3 10
1 21 -5 25 -5 3 -10 12 -10 18 0 7 4 6 10 -3 6 -10 10 -11 10 -2z m96 -18 c21
0 28 -25 14 -50 -11 -20 -23 -20 -26 1 -3 22 -5 23 -15 9 -9 -12 -10 -12 -5 3
3 10 6 28 7 40 0 12 3 16 6 10 2 -7 11 -13 19 -13z m-716 -10 c0 -5 -2 -10 -4
-10 -3 0 -8 5 -11 10 -3 6 -1 10 4 10 6 0 11 -4 11 -10z m569 7 c-2 -2 -12 -9
-21 -16 -15 -11 -18 -11 -18 1 0 7 10 14 21 15 12 1 20 1 18 0z m-387 -37 c17
-21 18 -25 4 -35 -12 -9 -13 -14 -4 -23 17 -17 28 -15 22 6 -5 15 -4 14 10 -2
11 -14 13 -23 5 -32 -6 -7 -9 -19 -6 -26 4 -8 6 -7 6 5 1 9 6 17 11 17 14 0
13 -33 -1 -47 -9 -9 -7 -10 10 -6 22 6 28 -6 11 -23 -14 -14 -2 -44 19 -44 12
0 13 2 3 9 -11 7 -11 9 1 14 10 4 22 -4 31 -18 20 -31 20 -35 -1 -35 -13 0
-11 -4 7 -13 19 -10 25 -21 25 -47 1 -21 12 -51 28 -75 15 -22 27 -50 27 -64
0 -13 11 -55 25 -94 l26 -70 -28 -31 c-15 -17 -30 -33 -33 -36 -9 -9 -10 -30
-3 -30 5 0 15 15 24 32 16 34 47 54 36 24 -5 -12 1 -19 18 -26 14 -5 25 -15
25 -21 0 -7 7 -21 16 -30 13 -15 15 -24 6 -46 -6 -16 -13 -43 -16 -60 -7 -42
-41 -116 -59 -131 -11 -10 -17 -9 -24 0 -21 27 -44 79 -38 88 4 6 0 17 -8 25
-12 12 -16 12 -20 1 -3 -7 -1 -19 4 -27 26 -42 -10 -59 -57 -27 -36 25 -43 45
-19 54 13 5 22 34 11 34 -2 0 -12 3 -21 7 -14 5 -16 2 -11 -13 3 -10 1 -26 -4
-34 -7 -12 -11 -8 -16 18 -5 26 -11 33 -25 29 -12 -3 -19 0 -19 10 0 10 -6 12
-19 8 -27 -8 -65 30 -57 58 5 18 4 19 -11 4 -13 -12 -20 -13 -36 -4 -27 15
-47 34 -47 43 0 4 -7 12 -16 19 -15 10 -15 20 -4 82 9 57 15 72 32 76 13 4 17
10 12 18 -6 10 -9 10 -12 1 -12 -36 -18 0 -18 91 1 71 5 109 14 120 20 24 38
11 40 -30 3 -43 6 -48 22 -38 9 5 9 10 1 18 -15 15 -14 77 2 82 6 3 28 6 47 7
19 2 38 8 42 13 5 7 8 7 8 0 0 -5 21 -11 48 -12 33 -2 41 0 27 6 -11 5 -23 7
-27 4 -4 -2 -12 6 -18 17 -8 16 -8 20 3 20 8 0 14 7 14 15 0 12 -3 12 -16 2
-11 -9 -13 -9 -8 0 5 8 -2 14 -20 19 -15 3 -35 8 -43 10 -10 3 -9 -1 3 -10 11
-8 26 -12 35 -9 13 3 12 1 -3 -11 -11 -9 -25 -14 -32 -12 -7 3 -16 -2 -21 -10
-7 -12 -14 -13 -35 -5 -17 7 -27 7 -27 1 0 -6 7 -10 16 -10 14 0 14 -3 4 -15
-11 -14 -14 -13 -25 2 -14 19 -9 44 9 42 31 -3 51 13 53 44 1 20 -1 25 -5 15
-5 -13 -11 -15 -22 -8 -8 5 -10 10 -5 10 6 0 3 5 -5 10 -8 5 -22 7 -31 5 -13
-5 -15 0 -11 22 4 21 7 23 10 10 2 -12 9 -16 19 -13 8 3 18 6 22 6 5 0 7 21 5
46 -2 26 -2 49 0 53 2 3 18 6 36 6 22 0 38 -8 52 -25z m291 -10 c3 -11 1 -22
-4 -25 -4 -3 -6 -12 -2 -20 7 -21 -3 -19 -28 6 -20 20 -19 34 4 34 7 1 11 6
10 13 -5 21 14 13 20 -8z m67 -4 c0 -3 -4 -8 -10 -11 -5 -3 -10 -1 -10 4 0 6
5 11 10 11 6 0 10 -2 10 -4z m-489 -29 c-10 -9 -11 -8 -5 6 3 10 9 15 12 12 3
-3 0 -11 -7 -18z m564 3 c3 -6 -1 -7 -9 -4 -18 7 -21 14 -7 14 6 0 13 -4 16
-10z m90 -30 c-5 -8 -11 -8 -17 -2 -6 6 -7 16 -3 22 5 8 11 8 17 2 6 -6 7 -16
3 -22z m-1060 -3 c12 -9 14 -16 7 -21 -6 -4 -9 -13 -6 -20 3 -8 -4 -16 -15
-19 -21 -5 -30 -27 -11 -27 6 0 10 6 10 13 0 8 4 7 10 -3 5 -8 10 -11 10 -6 0
5 7 3 15 -4 13 -11 12 -15 -8 -36 l-22 -24 -36 40 c-41 45 -43 90 -6 108 29
14 30 14 52 -1z m755 -39 c6 -18 4 -27 -12 -40 -26 -23 -70 -24 -62 -3 4 10
11 12 22 6 10 -6 20 -4 29 4 16 17 17 42 1 48 -10 4 -10 6 0 6 7 1 17 -9 22
-21z m257 -36 c-10 -2 -15 -8 -12 -13 4 -5 2 -9 -3 -9 -14 0 -21 25 -12 41 5
8 4 20 -2 29 -6 8 2 2 17 -15 24 -25 26 -31 12 -33z m-687 39 c0 -13 -29 -35
-37 -27 -3 3 -1 6 5 6 7 0 12 7 12 15 0 8 5 15 10 15 6 0 10 -4 10 -9z m555 1
c6 -4 12 -22 13 -41 1 -18 6 -40 11 -48 7 -13 9 -13 14 1 4 9 3 16 -2 16 -4 0
-8 16 -9 36 l-1 37 24 -29 c13 -15 22 -30 20 -33 -3 -2 0 -10 6 -18 14 -16 -7
-47 -28 -39 -7 3 -13 1 -13 -4 0 -6 5 -10 10 -10 6 0 10 -4 10 -10 0 -5 -7
-10 -15 -10 -8 0 -15 7 -15 15 0 9 -6 12 -17 8 -11 -4 -12 -8 -5 -11 20 -6 13
-22 -10 -23 -13 0 -17 -3 -10 -6 6 -2 9 -10 6 -15 -5 -7 -2 -8 5 -4 7 5 18 0
26 -10 7 -11 17 -16 21 -11 4 4 3 7 -3 7 -6 0 -9 9 -6 20 5 20 27 27 37 12 3
-5 -4 -23 -15 -41 -13 -21 -20 -52 -21 -92 -1 -53 -11 -68 -20 -29 -2 8 -9 21
-15 28 -16 17 -17 68 -2 78 8 4 8 9 -1 18 -8 8 -13 7 -19 -3 -5 -7 -14 -10
-20 -7 -15 10 -14 56 2 56 7 1 5 6 -6 14 -16 13 -17 19 -6 55 7 23 16 41 21
41 5 0 7 4 4 9 -4 5 0 12 6 15 11 5 11 7 0 12 -6 3 -10 10 -6 15 6 11 15 11
29 1z m-521 -24 c-11 -17 -12 -32 -1 -39 5 -4 7 -14 5 -23 -3 -16 -5 -15 -24
3 -12 11 -24 18 -27 15 -2 -3 -7 2 -11 11 -4 10 5 22 26 35 34 20 45 20 32 -2z
m452 -5 c-10 -10 -19 5 -10 18 6 11 8 11 12 0 2 -7 1 -15 -2 -18z m-38 -35
c-2 -17 -9 -23 -25 -22 -15 0 -23 -5 -23 -16 0 -18 19 -40 35 -40 5 0 5 4 -2
8 -9 6 -7 12 7 25 11 9 20 13 20 7 0 -5 -5 -12 -10 -15 -6 -4 -8 -11 -5 -16
10 -15 -22 -21 -45 -9 -16 8 -21 18 -17 35 3 16 -1 26 -12 29 -9 3 1 4 22 3
26 -2 36 1 33 9 -5 13 2 24 16 24 5 0 8 -10 6 -22z m-818 -33 c17 -21 5 -31
-15 -12 -8 9 -15 18 -15 21 0 11 18 6 30 -9z m585 5 c-3 -5 -10 -10 -16 -10
-5 0 -9 5 -9 10 0 6 7 10 16 10 8 0 12 -4 9 -10z m-50 -20 c-3 -5 -14 -10 -23
-9 -14 0 -13 2 3 9 27 11 27 11 20 0z m545 0 c0 -5 -2 -10 -4 -10 -3 0 -8 5
-11 10 -3 6 -1 10 4 10 6 0 11 -4 11 -10z m-1800 -21 c0 -5 -4 -9 -10 -9 -5 0
-10 7 -10 16 0 8 5 12 10 9 6 -3 10 -10 10 -16z m1740 7 c0 -8 -4 -17 -9 -21
-12 -7 -24 12 -16 25 9 15 25 12 25 -4z m-1050 -6 c0 -5 -7 -10 -15 -10 -8 0
-15 5 -15 10 0 6 7 10 15 10 8 0 15 -4 15 -10z m1196 -100 c7 0 19 -10 25 -22
7 -13 15 -25 18 -28 3 -3 12 -15 19 -28 10 -18 10 -27 1 -38 -15 -18 -29 -18
-29 1 0 25 -23 65 -37 65 -12 0 -17 12 -14 33 0 4 -4 7 -10 7 -15 0 -78 50
-89 71 -6 10 -7 24 -4 32 4 10 20 -1 56 -39 28 -30 57 -54 64 -54z m-1166 64
c0 -14 4 -23 10 -19 9 6 14 -14 11 -42 -1 -7 3 -13 9 -13 5 0 10 -7 10 -16 0
-8 -4 -13 -9 -9 -6 3 -25 -1 -43 -10 -18 -8 -26 -13 -17 -11 16 4 20 -26 6
-40 -4 -4 -7 -12 -7 -17 0 -6 11 2 25 17 14 15 25 32 25 37 0 17 61 -32 81
-64 14 -24 15 -33 6 -39 -7 -4 -13 -3 -15 2 -6 16 -42 12 -48 -5 -7 -18 -34
-20 -34 -3 0 9 -3 9 -11 1 -15 -15 -42 -5 -32 11 5 7 0 4 -9 -7 -22 -23 -39
-13 -36 20 2 15 -3 28 -11 31 -9 3 -11 -1 -6 -17 4 -14 2 -21 -7 -21 -20 0
-18 110 2 128 13 11 12 12 -7 7 -18 -5 -22 -3 -17 9 3 9 10 16 16 16 5 0 7 4
4 9 -8 13 4 41 17 41 6 0 7 -3 4 -7 -9 -9 23 -44 34 -37 15 9 10 24 -7 24 -9
0 -14 5 -12 11 2 6 7 10 11 9 4 0 15 6 23 15 22 22 34 19 34 -11z m807 -56 c0
-35 -2 -54 -4 -43 -3 11 -11 27 -19 36 -19 21 -14 69 7 69 13 0 16 -11 16 -62z
m276 -4 c45 -35 66 -64 46 -64 -6 0 -9 -6 -6 -14 5 -11 0 -13 -22 -6 -16 4
-35 3 -46 -2 -12 -7 -20 -7 -24 1 -4 7 -15 9 -24 5 -11 -4 -17 -1 -17 7 0 24
17 42 34 36 18 -7 23 18 6 28 -12 7 -13 45 -2 45 5 0 29 -16 55 -36z m-236
-16 c-3 -7 -5 -2 -5 12 0 14 2 19 5 13 2 -7 2 -19 0 -25z m-757 -8 c0 -5 -4
-10 -10 -10 -5 0 -10 5 -10 10 0 6 5 10 10 10 6 0 10 -4 10 -10z m786 -37 c13
-16 22 -34 19 -40 -2 -7 0 -13 6 -13 17 0 6 -62 -13 -74 -23 -14 -35 0 -20 24
17 27 15 50 -3 27 -13 -18 -14 -18 -25 2 -7 14 -7 27 -1 39 6 10 7 28 4 40 -7
30 5 28 33 -5z m174 -45 c0 35 130 -4 149 -44 10 -23 16 -104 7 -104 -2 0 -12
-3 -22 -7 -13 -5 -15 -3 -9 7 5 9 4 11 -4 6 -6 -4 -9 -11 -6 -16 3 -5 -4 -14
-15 -20 -11 -6 -20 -16 -20 -23 0 -29 -22 -87 -30 -82 -6 3 -7 -1 -4 -9 3 -9
2 -16 -4 -16 -5 0 -12 -9 -15 -20 -8 -29 -2 -25 35 26 18 26 32 56 30 68 -2
16 -1 17 6 7 6 -7 21 -13 36 -13 14 0 23 -4 20 -9 -3 -5 0 -9 5 -9 6 0 11 -7
11 -15 0 -8 5 -15 11 -15 6 0 8 6 5 13 -3 6 -8 19 -12 27 -3 8 -19 23 -36 33
-30 17 -30 18 -12 32 22 17 38 19 29 5 -3 -5 3 -10 15 -10 13 0 24 -9 30 -26
15 -39 12 -53 -15 -78 -22 -21 -23 -25 -9 -30 16 -6 17 -16 2 -13 -4 1 -14 -8
-23 -19 -20 -30 -51 -35 -78 -14 -22 18 -24 18 -35 -1 -7 -10 -8 -19 -3 -19 5
0 12 6 14 13 4 7 6 8 6 1 2 -21 -27 -38 -43 -25 -11 10 -16 8 -21 -8 -3 -12
-11 -21 -17 -21 -19 0 -48 32 -48 52 0 10 -5 18 -11 18 -15 0 -4 98 16 147 12
27 13 44 5 72 -14 52 -13 88 2 73 19 -19 33 -14 15 6 -11 12 -13 22 -7 32 6 9
5 17 -3 22 -9 6 -8 10 3 17 10 7 20 5 32 -6 11 -10 18 -12 18 -5z m220 -63 c0
-12 5 -26 12 -33 19 -19 3 -24 -19 -5 -14 13 -18 24 -13 38 4 11 5 27 3 35 -4
13 -4 13 6 0 6 -8 11 -24 11 -35z m-1190 -5 c0 -5 -4 -10 -10 -10 -5 0 -10 5
-10 10 0 6 5 10 10 10 6 0 10 -4 10 -10z m860 -14 c0 -8 3 -21 6 -30 7 -19 -6
-21 -30 -3 -11 8 -15 19 -10 30 7 20 34 23 34 3z m-791 -5 c8 -5 10 -14 6 -21
-5 -9 -4 -11 4 -6 13 8 91 -40 91 -55 0 -5 7 -6 15 -3 8 4 15 1 15 -6 0 -6 -4
-8 -10 -5 -5 3 -10 2 -10 -3 0 -4 -15 -8 -32 -8 -31 1 -33 3 -30 34 1 22 -2
32 -12 32 -15 0 -28 -24 -18 -34 3 -4 7 -13 8 -21 2 -12 -11 -15 -57 -15 -32
0 -59 3 -59 8 1 13 27 42 33 36 3 -3 16 4 29 16 22 22 22 22 1 11 -12 -6 -29
-8 -37 -5 -11 4 -16 1 -16 -10 0 -9 -4 -16 -10 -16 -18 0 -10 17 22 49 33 33
44 36 67 22z m-113 -40 c-2 -14 -7 -35 -11 -46 -5 -16 -5 -17 4 -5 9 13 11 11
11 -7 0 -12 6 -24 13 -26 6 -3 0 -6 -15 -6 -16 -1 -28 4 -28 11 0 6 -7 20 -16
29 -16 18 -27 66 -19 79 2 4 18 5 34 2 26 -4 30 -8 27 -31z m-326 25 c0 -2 3
-11 6 -19 4 -12 0 -14 -15 -10 -24 6 -29 33 -6 33 8 0 15 -2 15 -4z m1593 -20
c8 3 17 -2 21 -12 6 -15 4 -15 -10 -3 -16 13 -16 12 -5 -9 16 -29 14 -31 -26
-25 -20 3 -35 12 -38 24 -9 28 2 41 25 29 10 -5 25 -7 33 -4z m-1391 -3 c-6
-2 -10 -9 -6 -14 8 -13 -6 -50 -17 -44 -10 7 -12 48 -2 58 3 4 13 7 22 6 11 0
12 -2 3 -6z m45 1 c-3 -3 -12 -4 -19 -1 -8 3 -5 6 6 6 11 1 17 -2 13 -5z m966
-23 c21 -37 22 -58 0 -79 -16 -16 -16 -16 -10 1 4 11 2 17 -8 17 -20 0 -32 50
-14 61 10 6 11 9 2 9 -7 0 -13 5 -13 10 0 21 26 9 43 -19z m-1053 10 c0 -9
-24 -21 -41 -21 -6 0 -7 6 -3 13 6 10 4 10 -7 0 -7 -7 -21 -13 -31 -13 -16 0
-17 2 -6 15 14 15 88 21 88 6z m105 -41 c13 -26 14 -30 1 -30 -8 0 -18 5 -21
10 -3 6 -16 10 -28 10 l-22 1 24 19 c13 11 25 20 27 20 2 0 10 -13 19 -30z
m-120 10 c-3 -5 -12 -10 -18 -10 -7 0 -6 4 3 10 19 12 23 12 15 0z m-45 -10
c0 -5 -5 -10 -11 -10 -5 0 -7 5 -4 10 3 6 8 10 11 10 2 0 4 -4 4 -10z m-100
-12 c8 1 26 3 39 4 37 5 36 -18 -1 -29 l-33 -11 33 -1 c19 -1 31 -5 27 -11 -3
-5 0 -10 7 -10 19 -1 -34 -29 -54 -30 -9 0 -21 -6 -25 -14 -10 -18 -76 -36
-134 -36 -44 0 -46 1 -41 25 3 20 9 24 23 20 13 -5 17 -2 14 7 -4 9 7 19 27
29 25 10 34 21 36 43 3 26 6 28 35 21 18 -4 39 -7 47 -7z m167 -13 c3 -9 2
-19 -2 -23 -4 -4 -10 -2 -12 5 -2 7 -12 9 -21 6 -15 -6 -15 -5 -3 10 17 21 30
22 38 2z m67 -9 c-5 -14 -34 -31 -34 -20 0 8 24 33 32 34 4 0 5 -6 2 -14z
m1236 -11 c11 -13 10 -14 -4 -9 -9 3 -16 10 -16 15 0 13 6 11 20 -6z m-1175
-5 c3 -5 1 -10 -4 -10 -6 0 -11 5 -11 10 0 6 2 10 4 10 3 0 8 -4 11 -10z m302
-15 c29 -7 66 -44 68 -70 1 -5 5 -18 9 -28 5 -10 4 -23 -3 -31 -6 -7 -9 -21
-5 -30 3 -9 1 -16 -5 -16 -6 0 -11 5 -11 10 0 6 -3 9 -7 8 -17 -4 -53 14 -47
23 3 6 0 9 -7 7 -8 -1 -29 3 -46 11 -30 12 -38 22 -34 44 0 4 -3 7 -8 7 -13 0
-42 60 -35 72 6 10 68 6 131 -7z m-327 -4 c0 -5 -9 -7 -20 -4 -11 3 -20 7 -20
9 0 2 9 4 20 4 11 0 20 -4 20 -9z m186 -13 c5 -13 8 -36 9 -53 0 -23 5 -31 23
-33 13 -2 29 -16 38 -34 l16 -31 -29 7 c-30 8 -102 73 -103 94 0 6 -4 12 -10
12 -19 0 -10 -22 20 -48 17 -15 30 -32 30 -39 0 -7 5 -13 10 -13 6 0 10 -7 10
-16 0 -11 5 -14 16 -10 21 8 44 -11 44 -36 0 -10 4 -17 10 -13 5 3 7 12 3 20
-3 8 0 15 6 15 6 0 11 -6 11 -14 0 -9 7 -12 18 -10 22 6 68 -42 75 -79 4 -25
2 -28 -17 -23 -11 2 -37 8 -57 11 -26 5 -41 15 -55 38 -10 18 -17 39 -15 46 2
13 0 13 -13 2 -13 -11 -16 -11 -16 -1 0 8 -3 11 -6 7 -3 -3 -18 5 -32 19 -15
13 -30 24 -33 24 -8 0 -35 62 -31 73 1 4 -2 7 -6 7 -4 0 -16 14 -26 31 -19 33
-15 62 8 53 8 -3 17 -1 21 5 3 6 21 11 40 11 26 0 35 -5 41 -22z m1224 -13 c0
-8 -4 -15 -10 -15 -5 0 -7 7 -4 15 4 8 8 15 10 15 2 0 4 -7 4 -15z m-1340 -51
c0 -8 4 -14 9 -14 11 0 25 -39 18 -47 -11 -10 -48 19 -72 57 -30 47 -30 47 -7
53 19 4 52 -27 52 -49z m1270 31 c0 -8 -5 -15 -10 -15 -7 0 -7 -6 -1 -18 10
-19 -2 -42 -23 -42 -5 0 -1 7 10 15 16 13 16 14 2 9 -21 -7 -21 -6 -7 35 11
32 29 42 29 16z m-876 -81 c9 -3 16 -15 16 -26 0 -10 -4 -17 -9 -14 -4 3 -6
-6 -3 -20 3 -19 7 -22 13 -12 7 10 15 9 46 -7 21 -11 40 -22 43 -25 8 -9 85
-30 109 -30 18 0 21 -6 21 -45 0 -48 17 -71 68 -95 15 -7 34 -16 42 -21 8 -5
23 -12 33 -15 9 -4 17 -10 17 -15 0 -12 -17 -11 -25 1 -5 8 -11 7 -21 -1 -13
-10 -18 -6 -15 14 0 4 -6 7 -14 7 -8 0 -15 -9 -15 -19 0 -10 -7 -22 -16 -25
-30 -12 -101 -6 -114 9 -7 8 -43 35 -81 60 -38 25 -67 50 -64 55 3 5 1 11 -4
14 -4 3 -11 23 -15 44 -4 25 -16 48 -37 66 -25 23 -30 33 -24 54 6 24 22 52
30 52 2 0 10 -3 19 -6z m794 -14 c7 -12 10 -25 7 -30 -4 -6 6 -15 20 -20 20
-8 25 -15 20 -28 -4 -9 -10 -25 -12 -34 -3 -11 -15 -18 -29 -18 -28 0 -30 8
-6 27 16 12 15 13 -8 11 -25 -3 -60 -26 -60 -40 0 -4 19 -8 42 -10 31 -2 44
-8 46 -20 2 -12 -3 -18 -15 -19 -16 -1 -17 -2 0 -6 19 -5 22 -36 7 -92 -5 -20
-12 -48 -15 -63 -7 -34 -28 -28 -45 13 -7 16 -15 29 -19 29 -4 0 -26 29 -49
64 -42 64 -53 110 -29 119 7 2 8 8 3 13 -5 5 -11 4 -13 -3 -8 -21 -20 -15 -33
16 -15 38 0 72 30 64 13 -4 26 1 34 12 11 16 14 16 28 1 18 -17 33 -22 23 -6
-3 5 7 16 22 24 36 20 36 20 51 -4z m-666 -12 c17 -13 40 -31 50 -40 15 -15
16 -18 2 -18 -31 0 -108 56 -98 72 7 12 11 11 46 -14z m413 -57 c32 -37 56
-96 48 -117 -3 -8 0 -14 6 -14 6 0 11 -7 11 -15 0 -8 5 -15 10 -15 6 0 10 -5
10 -11 0 -5 -4 -7 -10 -4 -5 3 -10 -1 -10 -10 0 -9 6 -15 13 -14 28 3 37 -3
71 -56 20 -30 41 -57 46 -60 6 -3 10 -17 10 -31 0 -13 4 -24 10 -24 5 0 7 -7
4 -15 -9 -23 -21 -19 -77 28 -58 47 -77 69 -71 78 2 4 -3 10 -12 13 -8 3 -12
10 -9 16 3 5 0 10 -8 10 -8 0 -17 6 -20 14 -4 10 -15 13 -34 10 -39 -7 -42
-14 -5 -14 21 0 37 -8 51 -27 12 -14 20 -27 18 -29 -7 -8 -88 28 -109 48 -31
31 -52 73 -45 92 4 10 1 16 -8 16 -22 0 -19 40 3 41 16 1 16 2 0 6 -23 6 -23
8 8 48 14 19 28 53 31 77 l6 42 16 -24 c9 -14 29 -40 46 -59z m322 64 c0 -8
-4 -12 -9 -9 -5 3 -6 10 -3 15 9 13 12 11 12 -6z m-1022 -15 c4 -6 11 -8 16
-4 13 7 41 -15 33 -27 -3 -5 0 -9 5 -9 6 0 11 -4 11 -10 0 -18 -18 -11 -25 10
-3 11 -9 19 -13 19 -28 -4 -52 3 -52 16 0 17 16 20 25 5z m133 -91 c33 -32 40
-49 21 -49 -22 0 -69 42 -69 61 0 27 11 24 48 -12z m323 -30 c11 -5 17 -14 14
-19 -8 -13 -45 0 -45 16 0 17 5 17 31 3z m-320 -41 c23 -21 27 -29 14 -24 -11
5 -28 11 -37 13 -10 3 -18 14 -18 24 0 25 2 24 41 -13z m377 -31 c8 -16 12
-31 9 -33 -8 -9 -92 41 -95 57 -2 13 4 15 35 10 28 -5 41 -13 51 -34z m57
-139 c14 -6 25 -15 25 -20 0 -4 6 -8 13 -8 35 0 92 -109 65 -126 -14 -9 -9
-24 7 -24 9 0 19 10 24 23 9 22 9 22 21 -5 7 -16 19 -28 25 -28 7 0 20 -11 29
-25 9 -14 12 -25 7 -25 -5 0 -7 -8 -5 -17 4 -15 -3 -18 -42 -20 -25 -1 -51 -6
-57 -11 -7 -6 -31 -13 -54 -17 -24 -4 -46 -11 -49 -16 -3 -6 -14 -7 -25 -4
-13 4 -19 2 -19 -9 0 -8 -5 -18 -10 -21 -16 -10 -38 55 -42 123 -2 34 -6 62
-9 62 -4 0 -14 17 -22 38 -9 20 -27 53 -42 72 l-26 35 53 8 c29 4 57 12 62 17
13 13 39 13 71 -2z m188 -62 c14 -11 15 -15 4 -19 -15 -5 -37 10 -37 25 0 12
12 9 33 -6z m77 -58 c25 -18 27 -24 17 -37 -10 -12 -9 -14 6 -8 9 3 17 2 17
-4 0 -6 6 -7 13 -3 8 5 9 4 2 -4 -22 -23 -48 -17 -77 20 -17 20 -27 41 -24 47
10 15 12 14 46 -11z m-3751 -50 c-1 -31 -1 -31 -8 -8 -5 14 -6 28 -4 33 9 15
13 6 12 -25z m2731 12 l-75 -6 107 -4 c58 -3 104 -2 101 3 -6 10 27 9 108 -5
48 -7 66 -14 57 -20 -9 -7 -4 -8 13 -4 22 5 28 2 33 -17 10 -39 5 -181 -9
-222 l-13 -40 5 44 c4 32 3 42 -5 37 -7 -4 -12 -16 -12 -27 0 -16 -6 -20 -27
-17 -16 2 -27 8 -26 14 1 6 -10 12 -25 12 -89 3 -138 8 -147 13 -13 8 -113 5
-122 -4 -3 -4 -21 -7 -40 -7 l-33 0 -2 93 -2 92 -3 -92 c-3 -69 -7 -93 -18
-97 -9 -3 -16 1 -16 12 -3 34 2 168 7 204 5 34 9 37 42 41 20 2 69 4 107 4
l70 -1 -75 -6z m-2664 -47 c-10 -10 -19 5 -10 18 6 11 8 11 12 0 2 -7 1 -15
-2 -18z m-26 8 c0 -17 -18 -21 -24 -6 -3 9 0 15 9 15 8 0 15 -4 15 -9z m3790
-10 c0 -11 6 -21 13 -24 6 -2 -3 -4 -21 -5 -36 -1 -55 23 -31 39 23 14 39 10
39 -10z m-3886 -16 c-4 -8 -8 -15 -10 -15 -2 0 -4 7 -4 15 0 8 4 15 10 15 5 0
7 -7 4 -15z m106 -24 c0 -4 -7 -16 -15 -27 -14 -18 -14 -17 -15 13 0 25 4 31
15 27 8 -4 15 -9 15 -13z m30 -62 c0 -5 5 -7 10 -4 14 8 13 -8 -1 -22 -9 -9
-7 -16 5 -29 16 -16 16 -18 -4 -39 -15 -16 -18 -24 -9 -27 8 -3 9 -9 4 -18 -7
-11 -10 -10 -15 6 -4 10 -3 25 2 32 7 8 7 12 -1 12 -8 0 -10 8 -6 20 4 11 2
20 -4 20 -6 0 -11 6 -11 14 0 8 -8 16 -17 19 -15 3 -14 6 7 15 32 14 40 14 40
1z m3656 -15 c-21 -20 -20 -23 4 -17 14 4 29 -3 45 -21 29 -31 30 -36 10 -36
-8 0 -15 -4 -15 -9 0 -17 -25 -19 -40 -3 -13 14 -12 15 2 9 9 -3 22 0 28 8 13
15 -4 25 -32 17 -23 -6 -30 -50 -9 -62 12 -7 12 -9 2 -10 -8 0 -19 7 -26 17
-14 19 -75 24 -75 6 0 -7 -7 -13 -15 -13 -18 0 -20 16 -4 26 8 5 8 9 -1 14
-16 10 -4 30 17 30 9 0 13 -6 9 -15 -8 -21 0 -19 25 8 12 12 18 15 14 7 -8
-13 -6 -13 8 -2 9 8 22 10 28 6 8 -4 9 -3 5 5 -11 17 3 51 20 51 13 0 13 -2 0
-16z m-143 -67 c3 -8 -4 -14 -20 -15 -14 -1 -22 2 -18 8 4 6 11 8 16 5 5 -4 9
-1 9 4 0 15 7 14 13 -2z m-3554 -82 c5 2 14 -1 20 -9 9 -10 8 -16 -4 -26 -12
-10 -15 -9 -16 6 -1 11 -5 3 -9 -16 -6 -26 -7 -16 -7 40 0 41 2 58 4 37 2 -20
8 -35 12 -32z m3532 45 c21 12 22 10 13 -14 -5 -12 -10 -13 -25 -5 -10 5 -19
15 -18 22 0 9 2 9 6 0 3 -9 10 -10 24 -3z m109 -31 c0 -5 -5 -7 -11 -4 -6 4
-13 -2 -16 -14 -6 -23 -23 -29 -23 -8 0 9 -2 9 -8 0 -6 -9 -11 -7 -19 6 -9 15
-7 17 17 13 15 -2 31 1 34 7 9 14 26 14 26 0z m-190 -14 c0 -12 -19 -12 -23 0
-4 9 -1 12 9 8 7 -3 14 -7 14 -8z m320 -5 c0 -5 -8 -10 -17 -10 -15 0 -16 2
-3 10 19 12 20 12 20 0z m-3822 -27 c-1 -10 1 -23 5 -30 4 -6 3 -14 -3 -18 -5
-3 -10 1 -10 9 0 8 -8 20 -17 26 -17 11 -17 11 0 6 11 -3 17 0 17 9 0 8 3 15
6 15 3 0 4 -8 2 -17z m3543 -1 c-7 -2 -18 1 -23 6 -8 8 -4 9 13 5 13 -4 18 -8
10 -11z m179 10 c0 -13 -12 -22 -22 -16 -10 6 -1 24 13 24 5 0 9 -4 9 -8z
m120 -12 c0 -5 -9 -14 -19 -19 -14 -8 -20 -7 -24 4 -6 13 6 23 31 24 6 1 12
-3 12 -9z m-4030 -10 c-8 -5 -11 -10 -5 -10 5 0 4 -5 -2 -11 -12 -12 0 -46 22
-61 5 -4 6 -10 2 -14 -4 -4 -17 2 -30 14 -29 27 -37 28 -37 3 0 -23 16 -36 25
-21 8 13 55 -18 55 -37 0 -8 -6 -13 -12 -11 -7 3 -19 -2 -27 -9 -12 -12 -12
-17 3 -31 9 -9 16 -12 16 -6 0 6 7 11 15 11 8 0 15 -5 15 -11 0 -7 9 -19 20
-29 11 -9 20 -22 20 -29 0 -9 -3 -8 -10 2 -7 12 -15 13 -39 3 -27 -10 -31 -9
-36 8 -4 11 -10 17 -15 14 -5 -3 -10 5 -12 17 -4 27 -48 40 -48 14 0 -22 -33
-20 -55 4 -10 11 -13 20 -7 20 6 0 19 15 27 33 12 23 12 27 2 15 -19 -24 -24
-23 -29 7 -3 14 -1 25 4 25 5 0 6 5 3 10 -3 6 -2 10 3 10 5 0 9 7 9 15 0 17
-8 19 -25 5 -7 -5 -3 0 8 13 14 14 23 18 28 11 10 -15 42 -13 42 3 0 7 5 13
11 13 6 0 9 -9 6 -19 -3 -14 -1 -18 10 -14 7 3 11 8 8 11 -7 7 25 42 39 42 6
0 4 -5 -4 -10z m3725 -20 c19 0 27 -16 20 -40 -4 -12 -14 -19 -28 -18 -12 0
-30 -3 -39 -7 -10 -4 -18 -3 -18 3 0 5 7 12 15 16 11 4 14 13 9 30 -8 32 5 55
18 32 5 -9 15 -16 23 -16z m-3385 0 c0 -11 -8 -28 -19 -39 -18 -18 -19 -18
-19 8 0 27 14 51 29 51 5 0 9 -9 9 -20z m3633 0 c3 -11 3 -20 1 -20 -2 0 -8 9
-14 20 -6 11 -7 20 -2 20 6 0 12 -9 15 -20z m-3722 -17 c-12 -20 -14 -14 -5
12 4 9 9 14 11 11 3 -2 0 -13 -6 -23z m3556 -12 c10 -16 9 -18 -8 -14 -10 3
-19 12 -19 19 0 20 13 17 27 -5z m-3708 -21 c-6 -5 -19 -6 -27 -2 -13 4 -12 7
4 12 23 9 41 1 23 -10z m44 3 c-5 -2 -8 -15 -5 -28 4 -21 1 -25 -22 -25 -14 0
-26 5 -26 11 0 5 4 8 9 5 5 -3 14 8 21 24 7 17 17 27 23 23 8 -5 8 -8 0 -10z
m52 8 c3 -5 1 -12 -5 -16 -5 -3 -10 1 -10 9 0 18 6 21 15 7z m75 -11 c0 -5 -5
-10 -11 -10 -5 0 -7 5 -4 10 3 6 8 10 11 10 2 0 4 -4 4 -10z m-445 -9 c-3 -5
-1 -12 5 -16 18 -11 1 -23 -30 -21 -38 2 -42 14 -10 31 29 17 44 19 35 6z
m3999 -18 c6 -14 9 -15 15 -4 5 8 11 9 15 3 10 -16 -24 -23 -40 -8 -16 17 -18
26 -5 26 5 0 12 -8 15 -17z m-3564 -8 c0 -8 -7 -15 -15 -15 -9 0 -12 6 -9 15
4 8 10 15 15 15 5 0 9 -7 9 -15z m3480 -11 c0 -8 -5 -12 -10 -9 -6 4 -8 11 -5
16 9 14 15 11 15 -7z m-3910 -13 c9 -1 11 -4 5 -9 -13 -9 -15 -52 -2 -52 5 0
4 -7 -3 -15 -16 -19 -30 -19 -30 1 0 8 -4 12 -10 9 -5 -3 -10 1 -10 9 0 9 -9
16 -20 16 -13 0 -18 -5 -14 -14 5 -13 1 -13 -25 -3 -16 6 -28 14 -25 19 3 4
11 5 19 1 11 -4 13 -1 9 12 -9 23 12 34 55 30 20 -1 43 -3 51 -4z m4160 -11
c8 -5 11 -10 5 -10 -5 0 -17 5 -25 10 -8 5 -10 10 -5 10 6 0 17 -5 25 -10z
m-1030 -69 c0 -20 4 -41 9 -46 5 -6 12 -21 16 -33 6 -21 4 -23 -15 -17 -15 5
-20 3 -16 -3 7 -12 -12 -27 -22 -17 -7 7 -3 145 4 157 11 17 24 -5 24 -41z
m924 33 c3 -9 6 -29 6 -45 0 -28 -1 -28 -20 -12 -14 13 -17 20 -8 30 7 9 7 17
-2 28 -10 12 -10 15 3 15 8 0 18 -7 21 -16z m-4190 -39 c-9 -14 -19 -23 -22
-20 -3 2 -11 0 -19 -6 -16 -14 -16 -9 -3 25 7 19 17 26 35 26 25 0 25 -1 9
-25z m724 -21 c0 -34 -1 -35 -17 -17 -14 14 -15 22 -7 36 17 26 24 21 24 -19z
m2288 15 c11 -9 5 -73 -9 -97 -6 -9 -65 -9 -72 0 -9 12 -13 68 -5 68 6 0 15
12 20 26 8 20 14 24 33 18 12 -3 27 -10 33 -15z m601 1 c4 -14 14 -20 34 -20
22 0 32 -6 39 -26 13 -34 15 -32 -27 -40 -21 -4 -41 -12 -45 -18 -5 -8 -8 -7
-8 2 0 7 -14 12 -35 12 -40 0 -62 31 -45 65 1 3 3 10 4 17 1 11 33 25 64 27 8
1 16 -8 19 -19z m623 -4 c0 -3 -4 -8 -10 -11 -5 -3 -10 -1 -10 4 0 6 5 11 10
11 6 0 10 -2 10 -4z m-3940 -26 c0 -5 -4 -10 -10 -10 -5 0 -10 5 -10 10 0 6 5
10 10 10 6 0 10 -4 10 -10z m3730 -7 c44 -19 52 -38 19 -46 -15 -4 -20 -11
-16 -21 4 -10 1 -16 -6 -16 -7 0 -19 16 -27 35 -11 27 -18 34 -32 29 -12 -3
-18 0 -18 10 0 8 8 17 18 19 9 3 18 5 19 6 2 0 21 -7 43 -16z m150 -2 c0 -16
-39 -29 -71 -22 -23 5 -30 9 -21 15 35 21 92 26 92 7z m-1620 -40 c0 -27 -17
-35 -23 -11 -5 19 0 30 15 30 4 0 8 -9 8 -19z m110 -36 c-10 -12 -9 -15 3 -15
8 0 17 7 21 15 3 8 17 15 31 15 14 0 25 5 25 11 0 8 4 8 15 -1 13 -10 12 -15
-8 -32 -12 -11 -17 -17 -11 -14 6 3 27 1 46 -5 28 -7 36 -14 34 -32 -1 -23
-12 -27 -86 -28 -29 0 -32 -2 -18 -11 15 -11 14 -13 -9 -25 -35 -18 -83 -17
-83 2 0 20 -31 34 -55 24 -27 -11 -35 -11 -35 0 0 5 8 12 18 14 13 4 11 5 -5
6 -27 1 -29 13 -8 31 21 18 11 24 -14 10 -12 -6 -18 -16 -15 -22 5 -7 2 -8 -7
-2 -8 5 -22 7 -31 6 -10 -2 -18 2 -18 7 0 6 -7 11 -15 11 -8 0 -15 -5 -15 -11
0 -7 -12 -9 -30 -7 -17 3 -33 1 -36 -4 -10 -16 -33 -8 -28 10 5 16 5 16 -9 0
-8 -10 -28 -18 -46 -18 l-31 0 20 20 c11 11 33 20 48 20 15 0 33 5 40 12 6 6
24 13 39 15 49 5 68 9 80 16 13 8 37 -18 28 -33 -3 -5 -1 -10 4 -10 6 0 11 4
11 10 0 11 59 8 78 -4 14 -8 35 1 27 14 -7 11 22 33 35 25 5 -3 10 0 11 7 0
10 2 10 6 0 3 -7 -1 -19 -7 -27z m1290 25 c0 -5 -4 -10 -10 -10 -5 0 -10 5
-10 10 0 6 5 10 10 10 6 0 10 -4 10 -10z m-1210 -165 c0 -8 -4 -15 -9 -15 -13
0 -22 16 -14 24 11 11 23 6 23 -9z m-950 -46 c26 1 31 -1 20 -9 -19 -12 -83
-13 -76 -1 4 5 3 11 -1 14 -5 2 -1 2 7 -1 8 -3 31 -4 50 -3z m1479 -56 c10
-21 9 -28 -1 -34 -31 -20 -48 -4 -40 38 6 31 26 29 41 -4z m69 -6 c2 -18 -2
-29 -13 -33 -24 -9 -39 10 -31 41 9 35 40 30 44 -8z m42 -2 c0 -16 -6 -25 -15
-25 -15 0 -21 31 -8 43 13 14 23 6 23 -18z m-167 -5 c3 -13 0 -20 -9 -20 -8 0
-14 9 -14 20 0 11 4 20 9 20 5 0 11 -9 14 -20z m-1173 -1 c0 -5 -5 -9 -12 -9
-9 0 -9 -3 0 -12 19 -19 14 -28 -17 -28 -17 0 -33 -4 -36 -10 -3 -5 -24 -10
-46 -10 -21 0 -39 -4 -39 -10 0 -5 -8 -10 -17 -10 -15 0 -16 2 -3 10 12 8 11
10 -5 10 -12 0 -26 5 -33 12 -9 9 -5 15 21 26 68 31 187 50 187 31z m-240 -64
c0 -8 -3 -15 -7 -16 -5 0 -23 -2 -40 -5 -24 -3 -33 0 -33 10 0 13 15 18 68 25
6 0 12 -6 12 -14z m607 -81 c13 -12 14 -17 3 -24 -14 -9 -52 19 -44 32 8 13
24 10 41 -8z m-1017 -3 c0 -11 -52 -21 -65 -13 -5 4 4 10 20 13 44 10 45 10
45 0z m100 -1 c-19 -13 -30 -13 -30 0 0 6 10 10 23 10 18 0 19 -2 7 -10z m650
-14 c0 -11 -19 -15 -25 -6 -3 5 1 10 9 10 9 0 16 -2 16 -4z m-980 -17 c0 -5
-13 -9 -30 -9 -16 0 -30 4 -30 8 0 5 14 9 30 10 17 0 30 -4 30 -9z m930 1 c0
-5 -2 -10 -4 -10 -3 0 -8 5 -11 10 -3 6 -1 10 4 10 6 0 11 -4 11 -10z m2155
-30 c3 -5 1 -10 -4 -10 -6 0 -11 5 -11 10 0 6 2 10 4 10 3 0 8 -4 11 -10z
m-10 -60 c3 -5 1 -10 -4 -10 -6 0 -11 5 -11 10 0 6 2 10 4 10 3 0 8 -4 11 -10z
m-2068 -36 c-3 -3 -12 -4 -19 -1 -8 3 -5 6 6 6 11 1 17 -2 13 -5z m79 -153
c-4 -5 0 -12 6 -15 7 -2 -17 -4 -55 -3 -45 1 -62 4 -51 10 8 5 31 6 50 3 21
-4 34 -3 34 4 0 5 5 10 11 10 5 0 8 -4 5 -9z m1810 -952 c5 -8 9 -8 14 1 8 14
30 5 30 -11 0 -15 -63 -7 -68 9 -5 15 14 16 24 1z m74 -9 c0 -5 -5 -10 -11
-10 -5 0 -7 5 -4 10 3 6 8 10 11 10 2 0 4 -4 4 -10z m73 1 c36 -2 15 -18 -23
-18 -27 0 -40 5 -40 13 0 9 8 12 23 10 12 -3 30 -5 40 -5z m67 -12 c0 -5 -9
-9 -20 -9 -11 0 -20 4 -20 8 0 4 9 8 20 9 11 1 20 -2 20 -8z"/>
<path d="M3873 4445 c0 -8 4 -12 9 -9 4 3 8 9 8 15 0 5 -4 9 -8 9 -5 0 -9 -7
-9 -15z"/>
<path d="M3675 3930 c3 -5 8 -10 11 -10 2 0 4 5 4 10 0 6 -5 10 -11 10 -5 0
-7 -4 -4 -10z"/>
<path d="M3697 3804 c-6 -10 9 -42 16 -34 3 3 1 14 -3 24 -3 11 -9 15 -13 10z"/>
<path d="M3695 3750 c-3 -5 0 -10 7 -10 8 0 29 -18 47 -40 39 -47 49 -50 46
-12 -3 40 -2 39 -40 46 -19 4 -35 11 -35 16 0 13 -17 13 -25 0z"/>
<path d="M3703 3647 c-10 -17 6 -19 28 -4 l22 16 -22 -2 c-13 -1 -25 -5 -28
-10z"/>
<path d="M3810 3657 c0 -5 9 -17 20 -29 10 -12 17 -26 13 -31 -3 -6 -1 -7 5
-3 12 7 66 -45 54 -54 -11 -8 -13 -30 -2 -30 6 0 10 5 10 10 0 6 7 10 16 10
11 0 14 6 9 21 -4 13 -2 24 4 29 14 8 -2 60 -22 72 -20 12 -49 -11 -41 -35 5
-18 0 -16 -30 12 -20 19 -36 32 -36 28z m110 -43 c0 -8 6 -14 13 -14 6 0 4 -5
-6 -11 -10 -6 -21 -8 -24 -5 -4 3 -1 6 6 6 8 0 7 5 -3 16 -9 8 -14 20 -10 25
7 13 24 1 24 -17z"/>
<path d="M3649 3629 c13 -11 27 -17 30 -13 7 7 -28 34 -43 34 -6 -1 0 -10 13
-21z"/>
<path d="M3735 3628 c6 -16 47 -19 42 -3 -2 5 -13 11 -25 13 -15 2 -20 -1 -17
-10z"/>
<path d="M4011 3618 c-5 -13 -8 -23 -7 -23 0 0 11 -8 22 -18 22 -18 22 -18 20
7 0 16 -7 26 -16 26 -12 0 -12 2 -1 9 9 6 10 11 2 15 -6 4 -15 -3 -20 -16z"/>
<path d="M4110 4140 c-13 -9 -13 -10 0 -10 13 0 13 -1 0 -10 -8 -5 -12 -11 -9
-14 9 -10 31 12 27 27 -2 12 -7 14 -18 7z"/>
<path d="M3120 3981 c0 -6 4 -13 10 -16 6 -3 7 1 4 9 -7 18 -14 21 -14 7z"/>
<path d="M3225 3909 c-10 -15 3 -25 16 -12 7 7 7 13 1 17 -6 3 -14 1 -17 -5z"/>
<path d="M4295 3690 c3 -5 8 -10 11 -10 2 0 4 5 4 10 0 6 -5 10 -11 10 -5 0
-7 -4 -4 -10z"/>
<path d="M4302 3640 c0 -14 2 -19 5 -12 2 6 2 18 0 25 -3 6 -5 1 -5 -13z"/>
<path d="M4252 3624 c10 -10 20 -16 22 -13 3 3 -5 11 -17 18 -21 13 -21 12 -5
-5z"/>
<path d="M4357 3620 c-3 -11 -1 -20 4 -20 5 0 9 9 9 20 0 11 -2 20 -4 20 -2 0
-6 -9 -9 -20z"/>
<path d="M4330 3586 c0 -2 7 -7 16 -10 8 -3 12 -2 9 4 -6 10 -25 14 -25 6z"/>
<path d="M4386 3576 c6 -15 4 -17 -6 -11 -9 6 -11 4 -5 -4 5 -9 10 -10 18 -2
8 8 7 14 -2 24 -10 10 -11 8 -5 -7z"/>
<path d="M4250 3519 c0 -5 5 -7 10 -4 6 3 10 8 10 11 0 2 -4 4 -10 4 -5 0 -10
-5 -10 -11z"/>
<path d="M2800 3580 c8 -5 20 -10 25 -10 6 0 3 5 -5 10 -8 5 -19 10 -25 10 -5
0 -3 -5 5 -10z"/>
<path d="M3430 3580 c0 -5 5 -10 10 -10 6 0 10 5 10 10 0 6 -4 10 -10 10 -5 0
-10 -4 -10 -10z"/>
<path d="M4320 3455 c0 -8 2 -15 4 -15 2 0 6 7 10 15 3 8 1 15 -4 15 -6 0 -10
-7 -10 -15z"/>
<path d="M4465 3419 c-4 -6 -5 -12 -2 -15 2 -3 7 2 10 11 7 17 1 20 -8 4z"/>
<path d="M4347 3369 c4 -13 8 -18 11 -10 2 7 -1 18 -6 23 -8 8 -9 4 -5 -13z"/>
<path d="M4220 3269 c0 -5 5 -7 10 -4 6 3 10 8 10 11 0 2 -4 4 -10 4 -5 0 -10
-5 -10 -11z"/>
<path d="M3192 2960 c0 -14 2 -19 5 -12 2 6 2 18 0 25 -3 6 -5 1 -5 -13z"/>
<path d="M3463 2973 c9 -2 23 -2 30 0 6 3 -1 5 -18 5 -16 0 -22 -2 -12 -5z"/>
<path d="M3538 2963 c7 -3 16 -2 19 1 4 3 -2 6 -13 5 -11 0 -14 -3 -6 -6z"/>
<path d="M3623 2875 c0 -38 2 -53 4 -32 2 20 2 52 0 70 -2 17 -4 1 -4 -38z"/>
<path d="M3305 2911 c-3 -2 -2 -7 0 -11 6 -9 45 -1 45 9 0 7 -38 9 -45 2z"/>
<path d="M3360 2912 c0 -5 7 -9 15 -9 8 0 12 4 9 9 -3 4 -9 8 -15 8 -5 0 -9
-4 -9 -8z"/>
<path d="M3400 2907 c0 -5 6 -7 13 -4 6 2 20 0 29 -5 14 -6 16 -5 12 7 -6 15
-54 17 -54 2z"/>
<path d="M3473 2896 c5 -16 27 -19 27 -3 0 7 -7 14 -15 14 -9 0 -14 -5 -12
-11z"/>
<path d="M3510 2889 c0 -5 5 -7 10 -4 6 3 10 8 10 11 0 2 -4 4 -10 4 -5 0 -10
-5 -10 -11z"/>
<path d="M3210 2865 c0 -15 7 -21 30 -22 16 -1 32 2 35 7 4 6 0 10 -7 11 -7 0
-4 4 7 9 20 9 20 9 0 9 -12 1 -27 -5 -33 -11 -10 -10 -15 -10 -22 2 -8 12 -10
11 -10 -5z"/>
<path d="M3300 2857 c0 -18 2 -19 10 -7 6 9 10 10 10 3 0 -13 58 -15 66 -1 3
4 -1 8 -8 8 -10 0 -10 2 1 9 8 5 -3 9 -33 9 -41 1 -46 -1 -46 -21z m45 3 c3
-5 1 -10 -4 -10 -6 0 -11 5 -11 10 0 6 2 10 4 10 3 0 8 -4 11 -10z"/>
<path d="M3403 2861 c1 -14 9 -26 17 -28 10 -3 11 -2 4 4 -7 4 -14 17 -17 28
-5 16 -5 15 -4 -4z"/>
<path d="M3440 2855 c0 -16 6 -25 15 -25 8 0 15 9 15 19 0 10 -7 21 -15 25
-11 4 -15 -1 -15 -19z"/>
<path d="M3482 2848 c2 -18 10 -23 36 -24 25 -1 32 3 32 18 0 10 -7 18 -15 18
-8 0 -15 -7 -15 -15 0 -8 -8 -15 -17 -15 -15 0 -16 2 -3 10 13 9 13 10 0 10
-13 0 -13 1 0 10 13 8 12 10 -3 10 -13 0 -18 -6 -15 -22z"/>
<path d="M3562 2833 c3 -19 38 -31 38 -14 0 6 -7 8 -15 5 -8 -4 -15 -2 -15 4
0 6 6 13 13 15 7 3 4 6 -6 6 -12 1 -17 -5 -15 -16z"/>
<path d="M3365 2806 c-24 -18 -39 -20 -29 -4 5 7 3 8 -5 3 -8 -5 -9 -11 -3
-17 6 -6 18 -4 34 6 14 9 38 14 56 12 18 -2 34 0 37 3 8 14 -71 11 -90 -3z"/>
<path d="M3480 2795 l-25 -13 28 -7 c15 -4 31 -5 34 -1 4 3 -4 6 -17 6 -23 0
-23 0 -4 15 24 18 17 19 -16 0z"/>
<path d="M3388 2783 c12 -2 32 -2 45 0 12 2 2 4 -23 4 -25 0 -35 -2 -22 -4z"/>
<path d="M261 2573 c-1 -6 4 -15 9 -18 6 -4 7 -11 4 -17 -5 -7 -2 -8 5 -4 7 5
10 11 7 14 -3 3 0 12 7 21 10 14 10 14 -5 3 -13 -10 -17 -10 -21 0 -4 9 -6 9
-6 1z"/>
<path d="M301 2524 c0 -11 3 -14 6 -6 3 7 2 16 -1 19 -3 4 -6 -2 -5 -13z"/>
<path d="M4075 2591 c-3 -5 -2 -12 3 -15 5 -3 9 1 9 9 0 17 -3 19 -12 6z"/>
<path d="M2770 2260 c0 -5 5 -10 11 -10 5 0 7 5 4 10 -3 6 -8 10 -11 10 -2 0
-4 -4 -4 -10z"/>
<path d="M2726 2234 c-4 -13 -11 -24 -16 -24 -6 0 -10 -8 -10 -17 0 -13 2 -15
8 -5 5 7 16 10 25 6 10 -4 17 -1 17 6 0 7 7 18 15 24 13 9 11 13 -9 22 -22 10
-25 9 -30 -12z"/>
<path d="M4577 4580 c3 -11 9 -17 15 -14 5 3 4 12 -3 20 -16 19 -18 18 -12 -6z"/>
<path d="M3110 4554 c0 -5 5 -15 10 -20 6 -6 15 -40 20 -75 l9 -64 -3 69 c-3
46 -9 73 -20 84 -9 9 -16 12 -16 6z"/>
<path d="M2122 4507 c-9 -11 -10 -17 -2 -22 15 -9 23 -1 18 21 -3 15 -4 16
-16 1z"/>
<path d="M3420 4480 c0 -5 5 -10 11 -10 5 0 7 5 4 10 -3 6 -8 10 -11 10 -2 0
-4 -4 -4 -10z"/>
<path d="M2755 4450 c-3 -11 -2 -28 4 -37 8 -15 10 -11 11 20 0 41 -5 47 -15
17z"/>
<path d="M3410 4440 c-9 -16 -8 -20 5 -20 9 0 13 -4 10 -10 -3 -5 -1 -10 4
-10 6 0 11 3 11 8 0 4 3 17 6 30 8 29 -21 31 -36 2z"/>
<path d="M3200 4425 c-9 -11 -7 -12 9 -8 26 7 29 -21 4 -36 -16 -9 -15 -10 7
-11 20 0 26 5 28 23 2 29 -31 52 -48 32z"/>
<path d="M3130 4370 c0 -11 4 -20 9 -20 5 0 7 9 4 20 -3 11 -7 20 -9 20 -2 0
-4 -9 -4 -20z"/>
<path d="M3365 4380 c-8 -13 -1 -24 14 -19 6 3 7 10 2 18 -6 10 -10 10 -16 1z"/>
<path d="M2750 4376 c0 -2 7 -9 15 -16 13 -11 14 -10 9 4 -5 14 -24 23 -24 12z"/>
<path d="M3025 4359 c-4 -6 -5 -12 -2 -15 2 -3 7 2 10 11 7 17 1 20 -8 4z"/>
<path d="M2791 4340 c0 -23 25 -64 33 -52 3 6 1 14 -5 17 -6 4 -14 17 -19 29
-5 12 -9 15 -9 6z"/>
<path d="M3450 4340 c-13 -8 -13 -10 2 -10 9 0 20 5 23 10 8 13 -5 13 -25 0z"/>
<path d="M2330 4328 c0 -9 5 -20 10 -23 13 -8 13 5 0 25 -8 13 -10 13 -10 -2z"/>
<path d="M2460 4332 c0 -12 19 -26 26 -19 2 2 -2 10 -11 17 -9 8 -15 8 -15 2z"/>
<path d="M2500 4330 c0 -5 5 -10 10 -10 6 0 10 5 10 10 0 6 -4 10 -10 10 -5 0
-10 -4 -10 -10z"/>
<path d="M2017 4299 c-26 -30 -15 -34 13 -4 13 14 19 25 14 25 -5 0 -18 -9
-27 -21z"/>
<path d="M3056 4295 c-11 -8 -15 -15 -9 -15 6 0 16 7 23 15 16 19 11 19 -14 0z"/>
<path d="M2455 4277 c-8 -19 -2 -31 13 -26 5 2 6 13 2 24 -7 19 -8 19 -15 2z"/>
<path d="M2868 4273 c12 -2 30 -2 40 0 9 3 -1 5 -23 4 -22 0 -30 -2 -17 -4z"/>
<path d="M2941 4271 c-9 -6 -10 -10 -2 -12 20 -7 1 -41 -20 -36 -12 3 -16 0
-12 -9 3 -8 13 -14 23 -14 10 0 27 -3 37 -7 17 -6 17 -5 -1 16 -15 16 -17 24
-8 33 13 13 16 38 5 38 -5 0 -14 -4 -22 -9z"/>
<path d="M0 4239 c0 -11 4 -18 10 -14 5 3 7 12 3 20 -7 21 -13 19 -13 -6z"/>
<path d="M2365 4250 c-3 -5 -1 -10 4 -10 6 0 11 5 11 10 0 6 -2 10 -4 10 -3 0
-8 -4 -11 -10z"/>
<path d="M2840 4254 c0 -2 9 -8 20 -14 11 -6 20 -7 20 -2 0 6 -9 12 -20 15
-11 3 -20 3 -20 1z"/>
<path d="M3450 4255 c0 -3 9 -15 20 -27 17 -18 20 -19 20 -5 0 9 -9 21 -20 27
-11 6 -20 8 -20 5z"/>
<path d="M2756 4221 c-3 -5 1 -11 9 -15 22 -8 18 -25 -7 -35 -12 -4 -17 -11
-11 -14 6 -4 18 2 28 13 13 15 22 17 36 9 13 -6 19 -6 19 1 0 5 -5 10 -11 10
-6 0 -8 9 -4 20 7 22 -20 29 -28 8 -4 -10 -6 -10 -6 0 -1 14 -17 16 -25 3z"/>
<path d="M2359 4218 c-7 -22 -3 -45 7 -41 6 2 10 13 7 24 -5 16 -11 25 -14 17z"/>
<path d="M1 4143 c-1 -43 3 -73 9 -73 6 0 10 -7 10 -15 0 -8 -5 -15 -10 -15
-7 0 -7 -7 1 -21 8 -15 8 -19 0 -15 -6 4 -11 0 -11 -9 0 -9 4 -13 10 -10 5 3
10 2 10 -2 0 -5 9 -9 20 -9 25 0 27 16 3 17 -10 0 -13 3 -6 6 9 3 10 9 1 23
-9 14 -9 22 1 34 11 13 10 18 -3 31 -21 21 -20 26 2 19 10 -3 8 0 -5 8 -26 16
-16 45 12 34 22 -8 36 1 28 20 -4 12 -8 12 -13 4 -10 -16 -33 -2 -26 16 3 7 0
16 -6 20 -7 4 -8 3 -4 -4 4 -7 3 -12 -3 -12 -5 0 -12 6 -14 13 -3 6 -6 -21 -6
-60z"/>
<path d="M125 4190 c3 -5 8 -10 11 -10 2 0 4 5 4 10 0 6 -5 10 -11 10 -5 0 -7
-4 -4 -10z"/>
<path d="M102 4168 c2 -6 10 -14 16 -16 7 -2 10 2 6 12 -7 18 -28 22 -22 4z"/>
<path d="M2735 4120 c-3 -5 -1 -10 4 -10 6 0 11 5 11 10 0 6 -2 10 -4 10 -3 0
-8 -4 -11 -10z"/>
<path d="M3455 4100 c-3 -5 -1 -10 4 -10 6 0 11 5 11 10 0 6 -2 10 -4 10 -3 0
-8 -4 -11 -10z"/>
<path d="M58 4076 c-5 -24 25 -80 37 -68 4 4 1 -3 -6 -16 -8 -12 -23 -25 -33
-28 -19 -6 -19 -7 -2 -20 22 -16 49 -7 41 14 -3 8 0 19 7 24 20 12 28 9 28
-11 0 -11 5 -23 11 -26 6 -4 9 4 7 22 -2 18 1 27 10 26 6 -2 12 2 12 7 0 6 -4
10 -10 10 -5 0 -10 8 -10 18 0 13 -2 14 -9 4 -6 -11 -10 -8 -14 10 -4 12 -20
30 -36 39 -28 16 -29 16 -33 -5z m52 -36 c0 -5 -2 -10 -4 -10 -3 0 -8 5 -11
10 -3 6 -1 10 4 10 6 0 11 -4 11 -10z"/>
<path d="M2184 4073 c-2 -28 12 -30 26 -4 13 26 13 27 -8 27 -11 0 -18 -9 -18
-23z"/>
<path d="M2665 4092 c-6 -4 -10 -16 -10 -27 1 -11 -3 -23 -8 -26 -5 -3 -2 -9
6 -12 11 -4 17 4 22 30 7 38 5 46 -10 35z"/>
<path d="M4351 4097 c2 -1 12 -9 22 -16 15 -12 17 -12 11 3 -3 9 -13 16 -22
16 -8 0 -13 -1 -11 -3z"/>
<path d="M3325 4080 c-3 -5 -1 -10 4 -10 6 0 11 5 11 10 0 6 -2 10 -4 10 -3 0
-8 -4 -11 -10z"/>
<path d="M2760 4070 c0 -5 7 -7 15 -4 8 4 15 8 15 10 0 2 -7 4 -15 4 -8 0 -15
-4 -15 -10z"/>
<path d="M2791 4031 c-1 -8 -8 -11 -21 -8 -13 3 -20 0 -20 -9 0 -8 9 -14 19
-14 10 0 22 -8 25 -17 6 -14 9 -15 15 -4 5 7 11 12 15 12 3 -1 6 1 6 4 0 3 0
10 0 15 0 6 -6 10 -14 10 -8 0 -17 6 -19 13 -4 9 -6 8 -6 -2z"/>
<path d="M3345 4020 c-3 -5 -1 -10 4 -10 6 0 11 5 11 10 0 6 -2 10 -4 10 -3 0
-8 -4 -11 -10z"/>
<path d="M2448 4003 c-10 -2 -18 -11 -18 -19 0 -13 2 -13 16 0 18 18 30 20 37
6 3 -6 4 -5 3 2 -3 14 -14 17 -38 11z"/>
<path d="M3431 3984 c-22 -28 -27 -44 -13 -44 5 0 16 16 25 35 20 42 16 45
-12 9z"/>
<path d="M2976 3953 c-11 -11 -6 -23 9 -23 8 0 15 4 15 9 0 13 -16 22 -24 14z"/>
<path d="M2460 3940 c0 -5 5 -10 10 -10 6 0 10 5 10 10 0 6 -4 10 -10 10 -5 0
-10 -4 -10 -10z"/>
<path d="M3493 3915 c-18 -16 -23 -24 -13 -24 8 0 23 11 33 24 23 32 16 32
-20 0z"/>
<path d="M50 3920 c20 -13 33 -13 25 0 -3 6 -14 10 -23 10 -15 0 -15 -2 -2
-10z"/>
<path d="M3399 3923 c-1 -5 -1 -11 0 -15 0 -5 -4 -8 -10 -8 -7 0 -5 -10 5 -25
11 -17 13 -25 5 -25 -7 0 -10 -3 -6 -6 8 -8 47 6 47 17 0 6 -4 8 -9 4 -12 -7
-23 28 -15 49 3 9 1 16 -5 16 -6 0 -12 -3 -12 -7z"/>
<path d="M110 3890 c0 -5 5 -10 11 -10 5 0 7 5 4 10 -3 6 -8 10 -11 10 -2 0
-4 -4 -4 -10z"/>
<path d="M2410 3890 c0 -5 5 -10 10 -10 6 0 10 5 10 10 0 6 -4 10 -10 10 -5 0
-10 -4 -10 -10z"/>
<path d="M3528 3893 c7 -3 16 -2 19 1 4 3 -2 6 -13 5 -11 0 -14 -3 -6 -6z"/>
<path d="M77 3862 c-11 -2 -16 -9 -13 -18 4 -10 -2 -13 -22 -12 -15 1 -30 6
-33 10 -3 5 -6 -5 -6 -22 0 -18 5 -29 11 -26 35 14 42 15 56 5 11 -8 12 -12 3
-16 -16 -6 -17 -23 -3 -23 6 0 14 8 17 18 4 9 11 20 17 24 7 5 7 8 -1 8 -7 0
-13 5 -13 11 0 5 5 7 10 4 11 -7 12 3 2 25 -4 9 -15 14 -25 12z"/>
<path d="M4575 3849 c-4 -6 -5 -12 -2 -15 2 -3 7 2 10 11 7 17 1 20 -8 4z"/>
<path d="M130 3814 c0 -9 32 -33 44 -34 5 0 1 9 -9 20 -18 20 -35 26 -35 14z"/>
<path d="M2457 3804 c-4 -4 -16 -7 -28 -8 -28 -1 -38 -26 -11 -26 11 0 27 -3
35 -6 10 -3 16 3 19 20 5 25 -2 33 -15 20z"/>
<path d="M2367 3793 c-4 -3 -7 -11 -7 -17 0 -6 5 -5 12 2 6 6 9 14 7 17 -3 3
-9 2 -12 -2z"/>
<path d="M105 3770 c4 -6 11 -8 16 -5 14 9 11 15 -7 15 -8 0 -12 -5 -9 -10z"/>
<path d="M2631 3764 c0 -11 3 -14 6 -6 3 7 2 16 -1 19 -3 4 -6 -2 -5 -13z"/>
<path d="M2500 3751 c0 -5 7 -12 16 -15 14 -5 15 -4 4 9 -14 17 -20 19 -20 6z"/>
<path d="M2650 3750 c0 -5 7 -10 15 -10 8 0 15 5 15 10 0 6 -7 10 -15 10 -8 0
-15 -4 -15 -10z"/>
<path d="M2820 3750 c0 -5 5 -10 10 -10 6 0 10 5 10 10 0 6 -4 10 -10 10 -5 0
-10 -4 -10 -10z"/>
<path d="M2690 3740 c0 -5 5 -10 10 -10 6 0 10 5 10 10 0 6 -4 10 -10 10 -5 0
-10 -4 -10 -10z"/>
<path d="M2618 3703 c7 -3 16 -2 19 1 4 3 -2 6 -13 5 -11 0 -14 -3 -6 -6z"/>
<path d="M10 3690 c0 -5 7 -10 16 -10 8 0 12 5 9 10 -3 6 -10 10 -16 10 -5 0
-9 -4 -9 -10z"/>
<path d="M2330 3655 c0 -8 5 -15 10 -15 6 0 10 7 10 15 0 8 -4 15 -10 15 -5 0
-10 -7 -10 -15z"/>
<path d="M2580 3639 c14 -5 30 -17 37 -25 9 -13 17 -14 40 -6 l28 10 -33 1
c-18 1 -35 7 -38 14 -2 7 -17 13 -32 14 l-27 2 25 -10z"/>
<path d="M2190 3620 c0 -5 5 -10 10 -10 6 0 10 5 10 10 0 6 -4 10 -10 10 -5 0
-10 -4 -10 -10z"/>
<path d="M2266 3615 c-3 -9 0 -15 9 -15 8 0 15 7 15 15 0 8 -4 15 -9 15 -5 0
-11 -7 -15 -15z"/>
<path d="M2123 3583 c15 -16 27 -36 27 -45 0 -23 17 -31 24 -12 8 22 8 62 -1
67 -5 3 -24 8 -43 12 l-35 7 28 -29z"/>
<path d="M2310 3590 c0 -5 7 -10 15 -10 8 0 15 5 15 10 0 6 -7 10 -15 10 -8 0
-15 -4 -15 -10z"/>
<path d="M2237 3570 c-11 -13 -13 -20 -4 -20 8 0 7 -4 -3 -11 -12 -9 -12 -10
3 -5 10 3 27 6 36 6 20 0 25 31 7 42 -16 11 -20 10 -39 -12z"/>
<path d="M2374 3574 c3 -9 6 -18 6 -20 0 -2 9 -4 20 -4 28 0 25 13 -6 27 -22
10 -25 10 -20 -3z"/>
<path d="M2453 3563 c9 -2 17 -9 17 -14 0 -6 5 -7 12 -3 6 4 25 11 42 15 24 5
18 7 -29 7 -33 0 -52 -2 -42 -5z"/>
<path d="M80 3530 c0 -5 5 -10 11 -10 5 0 7 5 4 10 -3 6 -8 10 -11 10 -2 0 -4
-4 -4 -10z"/>
<path d="M2294 3525 c-24 -18 -7 -19 26 0 16 9 19 14 9 15 -8 0 -24 -7 -35
-15z"/>
<path d="M2365 3530 c3 -5 11 -10 16 -10 6 0 7 5 4 10 -3 6 -11 10 -16 10 -6
0 -7 -4 -4 -10z"/>
<path d="M2645 3510 c3 -5 2 -10 -3 -10 -15 0 -24 -32 -12 -44 7 -7 10 -3 10
12 0 12 6 22 14 22 8 0 16 7 20 15 4 10 -1 15 -15 15 -11 0 -17 -4 -14 -10z"/>
<path d="M2223 3503 c9 -2 23 -2 30 0 6 3 -1 5 -18 5 -16 0 -22 -2 -12 -5z"/>
<path d="M3026 3493 c-6 -14 -5 -15 5 -6 7 7 10 15 7 18 -3 3 -9 -2 -12 -12z"/>
<path d="M0 3443 c0 -22 2 -25 10 -13 13 20 13 40 0 40 -5 0 -10 -12 -10 -27z"/>
<path d="M60 3461 c0 -6 4 -13 10 -16 6 -3 7 1 4 9 -7 18 -14 21 -14 7z"/>
<path d="M2971 3450 c-31 -26 -17 -26 16 0 14 11 22 20 17 20 -5 -1 -20 -10
-33 -20z"/>
<path d="M30 3447 c0 -10 8 -17 18 -17 9 0 13 4 7 8 -5 4 -13 11 -17 16 -5 5
-8 2 -8 -7z"/>
<path d="M0 3376 c0 -8 6 -16 14 -19 10 -4 12 0 9 14 -6 22 -23 26 -23 5z"/>
<path d="M42 3370 c0 -14 2 -19 5 -12 2 6 2 18 0 25 -3 6 -5 1 -5 -13z"/>
<path d="M96 3379 c3 -6 2 -14 -3 -18 -7 -4 -7 -15 -1 -31 10 -25 10 -25 18
-3 10 24 2 63 -12 63 -5 0 -6 -5 -2 -11z"/>
<path d="M2870 3339 c0 -5 5 -7 10 -4 6 3 10 8 10 11 0 2 -4 4 -10 4 -5 0 -10
-5 -10 -11z"/>
<path d="M2780 3316 c0 -2 7 -7 16 -10 8 -3 12 -2 9 4 -6 10 -25 14 -25 6z"/>
<path d="M46 3287 c3 -10 9 -15 12 -12 3 3 0 11 -7 18 -10 9 -11 8 -5 -6z"/>
<path d="M100 3276 c0 -7 6 -19 14 -25 11 -9 12 -6 8 14 -5 26 -22 35 -22 11z"/>
<path d="M2861 3274 c0 -11 3 -14 6 -6 3 7 2 16 -1 19 -3 4 -6 -2 -5 -13z"/>
<path d="M3030 3265 c-11 -13 -10 -14 4 -9 9 3 16 10 16 15 0 13 -6 11 -20 -6z"/>
<path d="M22 3245 c0 -16 2 -22 5 -12 2 9 2 23 0 30 -3 6 -5 -1 -5 -18z"/>
<path d="M3030 3219 c0 -5 5 -7 10 -4 6 3 10 8 10 11 0 2 -4 4 -10 4 -5 0 -10
-5 -10 -11z"/>
<path d="M3 3195 c-3 -9 -3 -18 -1 -21 3 -3 8 4 11 16 6 23 -1 27 -10 5z"/>
<path d="M2740 3200 c0 -5 5 -10 11 -10 5 0 7 5 4 10 -3 6 -8 10 -11 10 -2 0
-4 -4 -4 -10z"/>
<path d="M2850 3181 c0 -5 7 -11 14 -14 10 -4 13 -1 9 9 -6 15 -23 19 -23 5z"/>
<path d="M4527 3163 c-12 -11 -8 -23 8 -23 8 0 15 7 15 15 0 16 -12 20 -23 8z"/>
<path d="M470 3123 c0 -10 5 -25 10 -33 7 -11 10 -7 10 18 0 17 -4 32 -10 32
-5 0 -10 -8 -10 -17z"/>
<path d="M180 3119 c0 -5 5 -7 10 -4 6 3 10 8 10 11 0 2 -4 4 -10 4 -5 0 -10
-5 -10 -11z"/>
<path d="M235 3110 c-3 -5 -1 -10 4 -10 6 0 11 5 11 10 0 6 -2 10 -4 10 -3 0
-8 -4 -11 -10z"/>
<path d="M36 3101 c-4 -7 -5 -15 -2 -18 9 -9 19 4 14 18 -4 11 -6 11 -12 0z"/>
<path d="M110 3070 c0 -5 5 -10 11 -10 5 0 7 5 4 10 -3 6 -8 10 -11 10 -2 0
-4 -4 -4 -10z"/>
<path d="M275 3070 c-3 -5 -1 -10 4 -10 6 0 11 5 11 10 0 6 -2 10 -4 10 -3 0
-8 -4 -11 -10z"/>
<path d="M725 3020 c-3 -5 -2 -16 2 -24 11 -20 38 -3 30 18 -7 18 -23 21 -32
6z"/>
<path d="M431 3012 c-1 -8 -9 -10 -26 -6 -19 5 -25 2 -25 -10 0 -15 45 -34 56
-23 3 3 4 16 1 29 -2 12 -5 17 -6 10z"/>
<path d="M46 3002 c-2 -4 4 -8 15 -8 10 0 19 4 19 8 0 4 -6 8 -14 8 -8 0 -17
-4 -20 -8z"/>
<path d="M17 2959 c4 -13 8 -18 11 -10 2 7 -1 18 -6 23 -8 8 -9 4 -5 -13z"/>
<path d="M713 2963 c-14 -5 -17 -31 -7 -57 9 -23 34 -1 34 30 0 25 -9 34 -27
27z"/>
<path d="M323 2927 c3 -9 1 -18 -6 -21 -7 -3 -3 -5 8 -3 23 3 27 28 6 35 -10
3 -12 0 -8 -11z"/>
<path d="M319 2858 c-6 -21 -5 -38 2 -38 5 0 9 9 9 20 0 16 -7 28 -11 18z"/>
<path d="M312 2779 c2 -7 10 -15 17 -17 8 -3 12 1 9 9 -2 7 -10 15 -17 17 -8
3 -12 -1 -9 -9z"/>
<path d="M827 2770 c3 -11 7 -20 9 -20 2 0 4 9 4 20 0 11 -4 20 -9 20 -5 0 -7
-9 -4 -20z"/>
<path d="M316 2735 c4 -8 8 -15 10 -15 2 0 4 7 4 15 0 8 -4 15 -10 15 -5 0 -7
-7 -4 -15z"/>
<path d="M250 2715 c0 -8 2 -15 4 -15 2 0 6 7 10 15 3 8 1 15 -4 15 -6 0 -10
-7 -10 -15z"/>
<path d="M290 2684 c0 -11 -6 -14 -20 -9 -11 4 -20 2 -20 -4 0 -6 11 -11 25
-11 18 0 25 5 25 20 0 11 -2 20 -5 20 -3 0 -5 -7 -5 -16z"/>
<path d="M1013 2563 c4 -3 2 -12 -4 -20 -9 -10 -7 -13 10 -13 15 0 21 -7 22
-22 1 -19 2 -20 6 -4 4 15 11 17 41 11 64 -13 136 -14 172 -2 l35 10 -30 9
c-16 4 -50 11 -75 14 -25 3 -63 10 -85 15 -47 10 -101 12 -92 2z"/>
<path d="M24 2549 c-7 -12 17 -32 26 -22 3 3 -1 8 -8 10 -6 3 -10 9 -6 14 3 5
3 9 0 9 -3 0 -8 -5 -12 -11z"/>
<path d="M2190 2480 c0 -5 5 -10 11 -10 5 0 7 5 4 10 -3 6 -8 10 -11 10 -2 0
-4 -4 -4 -10z"/>
<path d="M1061 2428 c16 -32 17 -32 15 -4 0 14 -7 26 -14 26 -10 0 -10 -5 -1
-22z"/>
</g>
</svg>
